<svg width="400" height="240" viewBox="0 0 400 240" fill="none" xmlns="http://www.w3.org/2000/svg">
  <rect width="400" height="240" rx="11.1111" fill="white"/>
  <path d="M303.985 176.137C307.895 155.813 281.648 136.828 267.024 141.733C267.822 121.523 254.443 106.874 239.205 101L229 208H306.114C321.976 206.927 319.847 175.069 303.989 176.142L303.985 176.137Z" fill="url(#paint0_linear_917_6266)"/>
  <path d="M232.983 208H150.017C146.692 208 144 205.261 144 201.878V104.781L175.69 72H233.053C236.336 72 239 74.7103 239 78.0504V201.878C239 205.261 236.308 208 232.983 208Z" fill="#DEE0E3"/>
  <path d="M138 208V132C138 132 99.1934 135.222 105.745 179.106C109.216 195.612 121.502 204.873 138 208Z" fill="url(#paint1_linear_917_6266)"/>
  <path d="M175 72V101.566C175 103.463 173.532 105 171.72 105H144L175 72Z" fill="#CACCD1"/>
  <path d="M307 39C308.657 39 310 37.6569 310 36C310 34.3431 308.657 33 307 33C305.343 33 304 34.3431 304 36C304 37.6569 305.343 39 307 39Z" fill="#CACCD1"/>
  <path d="M274 32L264 38L274 44V32Z" fill="#CACCD1"/>
  <path d="M287.852 39.1161L282.807 47.9785L291.545 53.0952L296.59 44.2328L287.852 39.1161Z" fill="#B2BAC0"/>
  <path d="M243.876 48H319.129C320.732 48 321.59 49.9358 320.535 51.1702L289.583 87.4886C289.287 87.8392 289.123 88.2859 289.123 88.747V111.088C289.123 112.164 288.256 113.028 287.206 112.999L275.335 112.692C274.322 112.668 273.516 111.818 273.516 110.78V87.8104C273.516 87.3445 273.347 86.8929 273.047 86.5423L242.474 51.1846C241.405 49.9502 242.263 48 243.871 48H243.876Z" fill="#DEE0E3"/>
  <path d="M102.986 172C85.1821 167.441 72 151.098 72 131.632C72 108.639 90.3944 90 113.085 90C122.453 90 131.088 93.1767 138 98.5253" stroke="#D5D7DC" stroke-width="2.04626" stroke-miterlimit="10" stroke-linecap="round" stroke-dasharray="4.09 4.09"/>
  <path d="M181 156H160V198H181V156Z" fill="#427DFF"/>
  <path d="M223 148H202V198H223V148Z" fill="#FF7735"/>
  <path d="M202 128H181V198H202V128Z" fill="#FFC53A"/>
  <path d="M175 198L181 156V198H175Z" fill="#3C72E8"/>
  <path d="M202 128V198H197L202 128Z" fill="#FCAE0E"/>
  <path d="M138.951 97.1301L137.034 100.601C136.938 100.777 137.055 101 137.247 101L140.752 100.991C140.937 100.991 141.057 100.785 140.973 100.609L139.385 97.1473C139.296 96.9583 139.048 96.9497 138.947 97.1301H138.951Z" fill="#D5D7DC"/>
  <path d="M250.533 158.371L239.899 168.506L246.146 175.249L256.78 165.114L250.533 158.371Z" fill="#757B80"/>
  <path d="M214.562 89.959C190.073 89.959 170.224 110.091 170.224 134.929C170.224 159.766 190.073 179.898 214.562 179.898C239.05 179.898 258.9 159.766 258.9 134.929C258.9 110.091 239.05 89.959 214.562 89.959ZM214.562 171.951C194.401 171.951 178.055 155.372 178.055 134.924C178.055 114.476 194.401 97.897 214.562 97.897C234.722 97.897 251.068 114.476 251.068 134.924C251.068 155.372 234.722 171.951 214.562 171.951Z" fill="#8F969C"/>
  <path d="M243.377 177.895L259.552 162.477L284.478 189.38C288.672 193.906 288.454 201.038 283.99 205.291C279.527 209.545 272.496 209.324 268.302 204.797L243.377 177.895Z" fill="url(#paint2_linear_917_6266)"/>
  <path d="M214.562 172.209C194.293 172.209 177.8 155.481 177.8 134.924C177.8 114.366 194.293 97.6387 214.562 97.6387C234.83 97.6387 251.323 114.366 251.323 134.924C251.323 155.481 234.83 172.209 214.562 172.209ZM214.562 99.078C195.071 99.078 179.215 115.16 179.215 134.928C179.215 154.697 195.071 170.779 214.562 170.779C234.052 170.779 249.908 154.697 249.908 134.928C249.908 115.16 234.052 99.078 214.562 99.078Z" fill="white"/>
  <path d="M281 115V120.497C281 123.853 283.33 126.571 286.203 126.571H353.859C355.596 126.571 357 128.213 357 130.241V149.506C357 151.988 355.277 154 353.155 154H296.096" stroke="#D5D7DC" stroke-width="2.04626" stroke-miterlimit="10" stroke-linecap="round" stroke-dasharray="4.09 4.09"/>
  <path d="M229.467 109.502C230.037 106.432 225.595 103.004 219.543 101.847C213.491 100.689 208.123 102.24 207.552 105.31C206.981 108.38 211.424 111.808 217.476 112.965C223.527 114.123 228.896 112.572 229.467 109.502Z" fill="#F7F7F7"/>
  <path d="M202 112C204.209 112 206 110.209 206 108C206 105.791 204.209 104 202 104C199.791 104 198 105.791 198 108C198 110.209 199.791 112 202 112Z" fill="#F7F7F7"/>
  <path d="M94.0863 95.2915L94.0737 85.8973C94.0732 85.4786 93.7322 85.1337 93.3182 85.1331L87.9367 85.1257C87.5228 85.1252 87.1827 85.4691 87.1833 85.8878L87.1959 95.2821C87.1964 95.7008 86.8564 96.0447 86.4424 96.0442L83.7717 96.0405C83.1641 96.0397 82.8045 96.7348 83.1557 97.2384L90.0395 107.243C90.3406 107.683 90.9782 107.68 91.2814 107.245L98.1384 97.259C98.485 96.7529 98.1268 96.0602 97.5192 96.0594L94.8485 96.0557C94.4345 96.0551 94.0936 95.7102 94.093 95.2915L94.0863 95.2915Z" fill="#CACCD1"/>
  <path d="M325.681 179.873L325.694 189.267C325.694 189.685 326.035 190.03 326.449 190.031L331.831 190.038C332.245 190.039 332.585 189.695 332.584 189.276L332.571 179.882C332.571 179.463 332.911 179.119 333.325 179.12L335.996 179.124C336.603 179.124 336.963 178.429 336.612 177.926L329.728 167.921C329.427 167.482 328.789 167.484 328.486 167.919L321.629 177.905C321.282 178.411 321.641 179.104 322.248 179.105L324.919 179.108C325.333 179.109 325.674 179.454 325.674 179.873L325.681 179.873Z" fill="#B2BAC0"/>
  <path d="M327 208H66V212H327V208Z" fill="url(#paint3_linear_917_6266)"/>
  <defs>
    <linearGradient id="paint0_linear_917_6266" x1="228.995" y1="154.498" x2="316.994" y2="154.498" gradientUnits="userSpaceOnUse">
      <stop stop-color="white"/>
      <stop offset="0.48" stop-color="#E5E7EA"/>
    </linearGradient>
    <linearGradient id="paint1_linear_917_6266" x1="116.752" y1="146.509" x2="142.038" y2="197.645" gradientUnits="userSpaceOnUse">
      <stop offset="0.06" stop-color="#EDEDED"/>
      <stop offset="0.66" stop-color="#E5E7EA"/>
    </linearGradient>
    <linearGradient id="paint2_linear_917_6266" x1="243.384" y1="185.406" x2="287.496" y2="185.406" gradientUnits="userSpaceOnUse">
      <stop stop-color="#8F969C"/>
      <stop offset="0.48" stop-color="#757B80"/>
    </linearGradient>
    <linearGradient id="paint3_linear_917_6266" x1="66" y1="210" x2="326.991" y2="210" gradientUnits="userSpaceOnUse">
      <stop stop-color="white" stop-opacity="0"/>
      <stop offset="0.48" stop-color="#8F9192"/>
      <stop offset="1" stop-color="#F5F5F5" stop-opacity="0"/>
    </linearGradient>
  </defs>
</svg>
