<svg width="400" height="241" viewBox="0 0 400 241" fill="none" xmlns="http://www.w3.org/2000/svg">
  <rect y="0.5" width="400" height="240" rx="10.5263" fill="white"/>
  <path d="M24.916 202V194.716H22.12V193.36H29.158V194.716H26.362V202H24.916ZM30.2373 194.536V193.21H31.6833V194.536H30.2373ZM30.2373 202V195.52H31.6833V202H30.2373ZM36.4266 202.18C35.7706 202.18 35.1946 202.038 34.6986 201.754C34.2026 201.47 33.8146 201.076 33.5346 200.572C33.2586 200.068 33.1206 199.488 33.1206 198.832C33.1206 198.124 33.2566 197.51 33.5286 196.99C33.8006 196.466 34.1786 196.06 34.6626 195.772C35.1466 195.484 35.7066 195.34 36.3426 195.34C37.0146 195.34 37.5846 195.498 38.0526 195.814C38.5246 196.126 38.8746 196.568 39.1026 197.14C39.3306 197.712 39.4166 198.386 39.3606 199.162H37.9266V198.634C37.9226 197.93 37.7986 197.416 37.5546 197.092C37.3106 196.768 36.9266 196.606 36.4026 196.606C35.8106 196.606 35.3706 196.79 35.0826 197.158C34.7946 197.522 34.6506 198.056 34.6506 198.76C34.6506 199.416 34.7946 199.924 35.0826 200.284C35.3706 200.644 35.7906 200.824 36.3426 200.824C36.6986 200.824 37.0046 200.746 37.2606 200.59C37.5206 200.43 37.7206 200.2 37.8606 199.9L39.2886 200.332C39.0406 200.916 38.6566 201.37 38.1366 201.694C37.6206 202.018 37.0506 202.18 36.4266 202.18ZM34.1946 199.162V198.07H38.6526V199.162H34.1946ZM40.6994 202V195.52H41.9774V197.098L41.8214 196.894C41.9014 196.678 42.0074 196.482 42.1394 196.306C42.2754 196.126 42.4374 195.978 42.6254 195.862C42.7854 195.754 42.9614 195.67 43.1534 195.61C43.3494 195.546 43.5494 195.508 43.7534 195.496C43.9574 195.48 44.1554 195.488 44.3474 195.52V196.87C44.1554 196.814 43.9334 196.796 43.6814 196.816C43.4334 196.836 43.2094 196.906 43.0094 197.026C42.8094 197.134 42.6454 197.272 42.5174 197.44C42.3934 197.608 42.3014 197.8 42.2414 198.016C42.1814 198.228 42.1514 198.458 42.1514 198.706V202H40.6994ZM51.0027 202.18C50.3907 202.18 49.8507 202.05 49.3827 201.79C48.9147 201.526 48.5487 201.16 48.2847 200.692C48.0247 200.224 47.8947 199.684 47.8947 199.072V196.288C47.8947 195.676 48.0247 195.136 48.2847 194.668C48.5487 194.2 48.9147 193.836 49.3827 193.576C49.8507 193.312 50.3907 193.18 51.0027 193.18C51.6147 193.18 52.1527 193.312 52.6167 193.576C53.0847 193.836 53.4507 194.2 53.7147 194.668C53.9787 195.136 54.1107 195.676 54.1107 196.288V199.072C54.1107 199.684 53.9787 200.224 53.7147 200.692C53.4507 201.16 53.0847 201.526 52.6167 201.79C52.1527 202.05 51.6147 202.18 51.0027 202.18ZM51.0027 200.806C51.3067 200.806 51.5827 200.734 51.8307 200.59C52.0787 200.442 52.2747 200.246 52.4187 200.002C52.5627 199.754 52.6347 199.478 52.6347 199.174V196.18C52.6347 195.872 52.5627 195.596 52.4187 195.352C52.2747 195.104 52.0787 194.908 51.8307 194.764C51.5827 194.616 51.3067 194.542 51.0027 194.542C50.6987 194.542 50.4227 194.616 50.1747 194.764C49.9267 194.908 49.7307 195.104 49.5867 195.352C49.4427 195.596 49.3707 195.872 49.3707 196.18V199.174C49.3707 199.478 49.4427 199.754 49.5867 200.002C49.7307 200.246 49.9267 200.442 50.1747 200.59C50.4227 200.734 50.6987 200.806 51.0027 200.806Z" fill="#C9CFDE"/>
  <path d="M89.916 202V194.716H87.12V193.36H94.158V194.716H91.362V202H89.916ZM95.2373 194.536V193.21H96.6833V194.536H95.2373ZM95.2373 202V195.52H96.6833V202H95.2373ZM101.427 202.18C100.771 202.18 100.195 202.038 99.6986 201.754C99.2026 201.47 98.8146 201.076 98.5346 200.572C98.2586 200.068 98.1206 199.488 98.1206 198.832C98.1206 198.124 98.2566 197.51 98.5286 196.99C98.8006 196.466 99.1786 196.06 99.6626 195.772C100.147 195.484 100.707 195.34 101.343 195.34C102.015 195.34 102.585 195.498 103.053 195.814C103.525 196.126 103.875 196.568 104.103 197.14C104.331 197.712 104.417 198.386 104.361 199.162H102.927V198.634C102.923 197.93 102.799 197.416 102.555 197.092C102.311 196.768 101.927 196.606 101.403 196.606C100.811 196.606 100.371 196.79 100.083 197.158C99.7946 197.522 99.6506 198.056 99.6506 198.76C99.6506 199.416 99.7946 199.924 100.083 200.284C100.371 200.644 100.791 200.824 101.343 200.824C101.699 200.824 102.005 200.746 102.261 200.59C102.521 200.43 102.721 200.2 102.861 199.9L104.289 200.332C104.041 200.916 103.657 201.37 103.137 201.694C102.621 202.018 102.051 202.18 101.427 202.18ZM99.1946 199.162V198.07H103.653V199.162H99.1946ZM105.699 202V195.52H106.977V197.098L106.821 196.894C106.901 196.678 107.007 196.482 107.139 196.306C107.275 196.126 107.437 195.978 107.625 195.862C107.785 195.754 107.961 195.67 108.153 195.61C108.349 195.546 108.549 195.508 108.753 195.496C108.957 195.48 109.155 195.488 109.347 195.52V196.87C109.155 196.814 108.933 196.796 108.681 196.816C108.433 196.836 108.209 196.906 108.009 197.026C107.809 197.134 107.645 197.272 107.517 197.44C107.393 197.608 107.301 197.8 107.241 198.016C107.181 198.228 107.151 198.458 107.151 198.706V202H105.699ZM114.395 202V194.938L112.775 195.928V194.332L114.395 193.36H115.871V202H114.395Z" fill="#C9CFDE"/>
  <path d="M152.916 202V194.716H150.12V193.36H157.158V194.716H154.362V202H152.916ZM158.237 194.536V193.21H159.683V194.536H158.237ZM158.237 202V195.52H159.683V202H158.237ZM164.427 202.18C163.771 202.18 163.195 202.038 162.699 201.754C162.203 201.47 161.815 201.076 161.535 200.572C161.259 200.068 161.121 199.488 161.121 198.832C161.121 198.124 161.257 197.51 161.529 196.99C161.801 196.466 162.179 196.06 162.663 195.772C163.147 195.484 163.707 195.34 164.343 195.34C165.015 195.34 165.585 195.498 166.053 195.814C166.525 196.126 166.875 196.568 167.103 197.14C167.331 197.712 167.417 198.386 167.361 199.162H165.927V198.634C165.923 197.93 165.799 197.416 165.555 197.092C165.311 196.768 164.927 196.606 164.403 196.606C163.811 196.606 163.371 196.79 163.083 197.158C162.795 197.522 162.651 198.056 162.651 198.76C162.651 199.416 162.795 199.924 163.083 200.284C163.371 200.644 163.791 200.824 164.343 200.824C164.699 200.824 165.005 200.746 165.261 200.59C165.521 200.43 165.721 200.2 165.861 199.9L167.289 200.332C167.041 200.916 166.657 201.37 166.137 201.694C165.621 202.018 165.051 202.18 164.427 202.18ZM162.195 199.162V198.07H166.653V199.162H162.195ZM168.699 202V195.52H169.977V197.098L169.821 196.894C169.901 196.678 170.007 196.482 170.139 196.306C170.275 196.126 170.437 195.978 170.625 195.862C170.785 195.754 170.961 195.67 171.153 195.61C171.349 195.546 171.549 195.508 171.753 195.496C171.957 195.48 172.155 195.488 172.347 195.52V196.87C172.155 196.814 171.933 196.796 171.681 196.816C171.433 196.836 171.209 196.906 171.009 197.026C170.809 197.134 170.645 197.272 170.517 197.44C170.393 197.608 170.301 197.8 170.241 198.016C170.181 198.228 170.151 198.458 170.151 198.706V202H168.699ZM175.655 201.988V200.728L179.351 197.434C179.639 197.178 179.839 196.936 179.951 196.708C180.063 196.48 180.119 196.26 180.119 196.048C180.119 195.76 180.057 195.504 179.933 195.28C179.809 195.052 179.637 194.872 179.417 194.74C179.201 194.608 178.951 194.542 178.667 194.542C178.367 194.542 178.101 194.612 177.869 194.752C177.641 194.888 177.463 195.07 177.335 195.298C177.207 195.526 177.147 195.772 177.155 196.036H175.667C175.667 195.46 175.795 194.958 176.051 194.53C176.311 194.102 176.667 193.77 177.119 193.534C177.575 193.298 178.101 193.18 178.697 193.18C179.249 193.18 179.745 193.304 180.185 193.552C180.625 193.796 180.971 194.136 181.223 194.572C181.475 195.004 181.601 195.502 181.601 196.066C181.601 196.478 181.545 196.824 181.433 197.104C181.321 197.384 181.153 197.642 180.929 197.878C180.709 198.114 180.435 198.376 180.107 198.664L177.485 200.986L177.353 200.626H181.601V201.988H175.655Z" fill="#C9CFDE"/>
  <path d="M217.916 202V194.716H215.12V193.36H222.158V194.716H219.362V202H217.916ZM223.237 194.536V193.21H224.683V194.536H223.237ZM223.237 202V195.52H224.683V202H223.237ZM229.427 202.18C228.771 202.18 228.195 202.038 227.699 201.754C227.203 201.47 226.815 201.076 226.535 200.572C226.259 200.068 226.121 199.488 226.121 198.832C226.121 198.124 226.257 197.51 226.529 196.99C226.801 196.466 227.179 196.06 227.663 195.772C228.147 195.484 228.707 195.34 229.343 195.34C230.015 195.34 230.585 195.498 231.053 195.814C231.525 196.126 231.875 196.568 232.103 197.14C232.331 197.712 232.417 198.386 232.361 199.162H230.927V198.634C230.923 197.93 230.799 197.416 230.555 197.092C230.311 196.768 229.927 196.606 229.403 196.606C228.811 196.606 228.371 196.79 228.083 197.158C227.795 197.522 227.651 198.056 227.651 198.76C227.651 199.416 227.795 199.924 228.083 200.284C228.371 200.644 228.791 200.824 229.343 200.824C229.699 200.824 230.005 200.746 230.261 200.59C230.521 200.43 230.721 200.2 230.861 199.9L232.289 200.332C232.041 200.916 231.657 201.37 231.137 201.694C230.621 202.018 230.051 202.18 229.427 202.18ZM227.195 199.162V198.07H231.653V199.162H227.195ZM233.699 202V195.52H234.977V197.098L234.821 196.894C234.901 196.678 235.007 196.482 235.139 196.306C235.275 196.126 235.437 195.978 235.625 195.862C235.785 195.754 235.961 195.67 236.153 195.61C236.349 195.546 236.549 195.508 236.753 195.496C236.957 195.48 237.155 195.488 237.347 195.52V196.87C237.155 196.814 236.933 196.796 236.681 196.816C236.433 196.836 236.209 196.906 236.009 197.026C235.809 197.134 235.645 197.272 235.517 197.44C235.393 197.608 235.301 197.8 235.241 198.016C235.181 198.228 235.151 198.458 235.151 198.706V202H233.699ZM243.367 202.162C242.935 202.162 242.527 202.078 242.143 201.91C241.759 201.742 241.425 201.504 241.141 201.196C240.861 200.888 240.659 200.524 240.535 200.104L241.933 199.726C242.033 200.07 242.215 200.336 242.479 200.524C242.747 200.708 243.041 200.798 243.361 200.794C243.645 200.794 243.899 200.728 244.123 200.596C244.347 200.464 244.523 200.286 244.651 200.062C244.779 199.834 244.843 199.58 244.843 199.3C244.843 198.872 244.705 198.514 244.429 198.226C244.153 197.938 243.797 197.794 243.361 197.794C243.229 197.794 243.099 197.812 242.971 197.848C242.847 197.884 242.727 197.934 242.611 197.998L241.951 196.858L244.855 194.374L244.981 194.722H240.871V193.36H246.169V194.728L243.835 196.972L243.823 196.546C244.347 196.582 244.793 196.728 245.161 196.984C245.533 197.24 245.817 197.57 246.013 197.974C246.213 198.378 246.313 198.82 246.313 199.3C246.313 199.844 246.179 200.332 245.911 200.764C245.647 201.196 245.291 201.538 244.843 201.79C244.399 202.038 243.907 202.162 243.367 202.162Z" fill="#C9CFDE"/>
  <path d="M282.916 202V194.716H280.12V193.36H287.158V194.716H284.362V202H282.916ZM288.237 194.536V193.21H289.683V194.536H288.237ZM288.237 202V195.52H289.683V202H288.237ZM294.427 202.18C293.771 202.18 293.195 202.038 292.699 201.754C292.203 201.47 291.815 201.076 291.535 200.572C291.259 200.068 291.121 199.488 291.121 198.832C291.121 198.124 291.257 197.51 291.529 196.99C291.801 196.466 292.179 196.06 292.663 195.772C293.147 195.484 293.707 195.34 294.343 195.34C295.015 195.34 295.585 195.498 296.053 195.814C296.525 196.126 296.875 196.568 297.103 197.14C297.331 197.712 297.417 198.386 297.361 199.162H295.927V198.634C295.923 197.93 295.799 197.416 295.555 197.092C295.311 196.768 294.927 196.606 294.403 196.606C293.811 196.606 293.371 196.79 293.083 197.158C292.795 197.522 292.651 198.056 292.651 198.76C292.651 199.416 292.795 199.924 293.083 200.284C293.371 200.644 293.791 200.824 294.343 200.824C294.699 200.824 295.005 200.746 295.261 200.59C295.521 200.43 295.721 200.2 295.861 199.9L297.289 200.332C297.041 200.916 296.657 201.37 296.137 201.694C295.621 202.018 295.051 202.18 294.427 202.18ZM292.195 199.162V198.07H296.653V199.162H292.195ZM298.699 202V195.52H299.977V197.098L299.821 196.894C299.901 196.678 300.007 196.482 300.139 196.306C300.275 196.126 300.437 195.978 300.625 195.862C300.785 195.754 300.961 195.67 301.153 195.61C301.349 195.546 301.549 195.508 301.753 195.496C301.957 195.48 302.155 195.488 302.347 195.52V196.87C302.155 196.814 301.933 196.796 301.681 196.816C301.433 196.836 301.209 196.906 301.009 197.026C300.809 197.134 300.645 197.272 300.517 197.44C300.393 197.608 300.301 197.8 300.241 198.016C300.181 198.228 300.151 198.458 300.151 198.706V202H298.699ZM309.483 202V200.572H305.655V199.222L308.421 193.36H310.071L307.305 199.222H309.483V196.972H310.947V199.222H311.757V200.572H310.947V202H309.483Z" fill="#C9CFDE"/>
  <path d="M347.916 202V194.716H345.12V193.36H352.158V194.716H349.362V202H347.916ZM353.237 194.536V193.21H354.683V194.536H353.237ZM353.237 202V195.52H354.683V202H353.237ZM359.427 202.18C358.771 202.18 358.195 202.038 357.699 201.754C357.203 201.47 356.815 201.076 356.535 200.572C356.259 200.068 356.121 199.488 356.121 198.832C356.121 198.124 356.257 197.51 356.529 196.99C356.801 196.466 357.179 196.06 357.663 195.772C358.147 195.484 358.707 195.34 359.343 195.34C360.015 195.34 360.585 195.498 361.053 195.814C361.525 196.126 361.875 196.568 362.103 197.14C362.331 197.712 362.417 198.386 362.361 199.162H360.927V198.634C360.923 197.93 360.799 197.416 360.555 197.092C360.311 196.768 359.927 196.606 359.403 196.606C358.811 196.606 358.371 196.79 358.083 197.158C357.795 197.522 357.651 198.056 357.651 198.76C357.651 199.416 357.795 199.924 358.083 200.284C358.371 200.644 358.791 200.824 359.343 200.824C359.699 200.824 360.005 200.746 360.261 200.59C360.521 200.43 360.721 200.2 360.861 199.9L362.289 200.332C362.041 200.916 361.657 201.37 361.137 201.694C360.621 202.018 360.051 202.18 359.427 202.18ZM357.195 199.162V198.07H361.653V199.162H357.195ZM363.699 202V195.52H364.977V197.098L364.821 196.894C364.901 196.678 365.007 196.482 365.139 196.306C365.275 196.126 365.437 195.978 365.625 195.862C365.785 195.754 365.961 195.67 366.153 195.61C366.349 195.546 366.549 195.508 366.753 195.496C366.957 195.48 367.155 195.488 367.347 195.52V196.87C367.155 196.814 366.933 196.796 366.681 196.816C366.433 196.836 366.209 196.906 366.009 197.026C365.809 197.134 365.645 197.272 365.517 197.44C365.393 197.608 365.301 197.8 365.241 198.016C365.181 198.228 365.151 198.458 365.151 198.706V202H363.699ZM373.457 202.18C373.017 202.18 372.607 202.09 372.227 201.91C371.847 201.726 371.519 201.474 371.243 201.154C370.971 200.834 370.775 200.462 370.655 200.038L372.047 199.666C372.103 199.898 372.205 200.098 372.353 200.266C372.505 200.434 372.681 200.564 372.881 200.656C373.085 200.748 373.295 200.794 373.511 200.794C373.791 200.794 374.047 200.726 374.279 200.59C374.511 200.454 374.695 200.272 374.831 200.044C374.967 199.812 375.035 199.556 375.035 199.276C375.035 198.996 374.965 198.742 374.825 198.514C374.689 198.282 374.505 198.1 374.273 197.968C374.041 197.832 373.787 197.764 373.511 197.764C373.179 197.764 372.903 197.824 372.683 197.944C372.467 198.064 372.301 198.192 372.185 198.328L370.949 197.932L371.213 193.36H375.905V194.716H371.987L372.527 194.206L372.335 197.386L372.071 197.062C372.295 196.858 372.555 196.706 372.851 196.606C373.147 196.506 373.433 196.456 373.709 196.456C374.249 196.456 374.727 196.58 375.143 196.828C375.563 197.072 375.891 197.406 376.127 197.83C376.367 198.254 376.487 198.736 376.487 199.276C376.487 199.816 376.347 200.306 376.067 200.746C375.787 201.182 375.417 201.53 374.957 201.79C374.501 202.05 374.001 202.18 373.457 202.18Z" fill="#C9CFDE"/>
  <g clip-path="url(#clip0_917_6467)">
    <path d="M381 149.896V158.547C380.493 169.416 338.646 169.416 339.153 158.551V149.9C339.153 161.901 381 161.901 381 149.896Z" fill="#FFC83D"/>
    <path d="M360.075 159.144C371.631 159.144 381 155.295 381 150.547C381 145.798 371.631 141.949 360.075 141.949C348.518 141.949 339.15 145.798 339.15 150.547C339.15 155.295 348.518 159.144 360.075 159.144Z" fill="#FFE072"/>
  </g>
  <g clip-path="url(#clip1_917_6467)">
    <path d="M382.8 139.096V147.747C382.293 158.615 340.446 158.615 340.953 147.75V139.099C340.953 151.1 382.8 151.1 382.8 139.096Z" fill="#FFC32D"/>
    <path d="M361.875 148.345C373.432 148.345 382.8 144.496 382.8 139.748C382.8 135 373.432 131.15 361.875 131.15C350.318 131.15 340.95 135 340.95 139.748C340.95 144.496 350.318 148.345 361.875 148.345Z" fill="#FFE072"/>
  </g>
  <g clip-path="url(#clip2_917_6467)">
    <path d="M377.85 131.447V140.098C377.343 150.967 335.496 150.967 336.003 140.101V131.451C336.003 143.452 377.85 143.452 377.85 131.447Z" fill="#FFC83D"/>
    <path d="M356.925 140.695C368.482 140.695 377.85 136.846 377.85 132.097C377.85 127.349 368.482 123.5 356.925 123.5C345.368 123.5 336 127.349 336 132.097C336 136.846 345.368 140.695 356.925 140.695Z" fill="#FFE072"/>
  </g>
  <g clip-path="url(#clip3_917_6467)">
    <path d="M381 121.096V129.747C380.493 140.615 338.646 140.615 339.153 129.75V121.099C339.153 133.1 381 133.1 381 121.096Z" fill="#FFC32D"/>
    <path d="M360.075 130.345C371.631 130.345 381 126.496 381 121.748C381 117 371.631 113.15 360.075 113.15C348.518 113.15 339.15 117 339.15 121.748C339.15 126.496 348.518 130.345 360.075 130.345Z" fill="#FFE072"/>
  </g>
  <g clip-path="url(#clip4_917_6467)">
    <path d="M381 108.947V117.598C380.493 128.467 338.646 128.467 339.153 117.601V108.951C339.153 120.952 381 120.952 381 108.947Z" fill="#FFC83D"/>
    <path d="M360.075 118.195C371.631 118.195 381 114.346 381 109.597C381 104.849 371.631 101 360.075 101C348.518 101 339.15 104.849 339.15 109.597C339.15 114.346 348.518 118.195 360.075 118.195Z" fill="#FFE072"/>
  </g>
  <g clip-path="url(#clip5_917_6467)">
    <path d="M380.85 97.9473V106.598C380.343 117.467 338.496 117.467 339.003 106.601V97.9506C339.003 109.952 380.85 109.952 380.85 97.9473Z" fill="#FFC83D"/>
    <path d="M359.925 107.195C371.482 107.195 380.85 103.346 380.85 98.5974C380.85 93.8492 371.482 90 359.925 90C348.368 90 339 93.8492 339 98.5974C339 103.346 348.368 107.195 359.925 107.195Z" fill="#FFE072"/>
  </g>
  <g clip-path="url(#clip6_917_6467)">
    <path d="M377.85 85.9473V94.5981C377.343 105.467 335.496 105.467 336.003 94.6014V85.9506C336.003 97.9515 377.85 97.9515 377.85 85.9473Z" fill="#FFC83D"/>
    <path d="M356.925 95.1947C368.482 95.1947 377.85 91.3456 377.85 86.5974C377.85 81.8492 368.482 78 356.925 78C345.368 78 336 81.8492 336 86.5974C336 91.3456 345.368 95.1947 356.925 95.1947Z" fill="#FFE072"/>
  </g>
  <g clip-path="url(#clip7_917_6467)">
    <path d="M317 149.748V158.399C316.493 169.267 274.646 169.267 275.153 158.402V149.751C275.153 161.752 317 161.752 317 149.748Z" fill="#FFC83D"/>
    <path d="M296.075 158.996C307.631 158.996 317 155.146 317 150.398C317 145.65 307.631 141.801 296.075 141.801C284.518 141.801 275.15 145.65 275.15 150.398C275.15 155.146 284.518 158.996 296.075 158.996Z" fill="#FFE072"/>
  </g>
  <g clip-path="url(#clip8_917_6467)">
    <path d="M317 138.947V147.598C316.493 158.467 274.646 158.467 275.153 147.601V138.951C275.153 150.952 317 150.952 317 138.947Z" fill="#FFC32D"/>
    <path d="M296.075 148.195C307.631 148.195 317 144.346 317 139.597C317 134.849 307.631 131 296.075 131C284.518 131 275.15 134.849 275.15 139.597C275.15 144.346 284.518 148.195 296.075 148.195Z" fill="#FFE072"/>
  </g>
  <g clip-path="url(#clip9_917_6467)">
    <path d="M313.85 131.297V139.948C313.343 150.816 271.496 150.816 272.003 139.951V131.3C272.003 143.301 313.85 143.301 313.85 131.297Z" fill="#FFC83D"/>
    <path d="M292.925 140.544C304.482 140.544 313.85 136.695 313.85 131.947C313.85 127.199 304.482 123.35 292.925 123.35C281.368 123.35 272 127.199 272 131.947C272 136.695 281.368 140.544 292.925 140.544Z" fill="#FFE072"/>
  </g>
  <g clip-path="url(#clip10_917_6467)">
    <path d="M317 120.947V129.598C316.493 140.467 274.646 140.467 275.153 129.601V120.951C275.153 132.952 317 132.952 317 120.947Z" fill="#FFC83D"/>
    <path d="M296.075 130.195C307.631 130.195 317 126.346 317 121.597C317 116.849 307.631 113 296.075 113C284.518 113 275.15 116.849 275.15 121.597C275.15 126.346 284.518 130.195 296.075 130.195Z" fill="#FFE072"/>
  </g>
  <g clip-path="url(#clip11_917_6467)">
    <path d="M316.85 109.947V118.598C316.343 129.467 274.496 129.467 275.003 118.601V109.951C275.003 121.952 316.85 121.952 316.85 109.947Z" fill="#FFC83D"/>
    <path d="M295.925 119.195C307.482 119.195 316.85 115.346 316.85 110.597C316.85 105.849 307.482 102 295.925 102C284.368 102 275 105.849 275 110.597C275 115.346 284.368 119.195 295.925 119.195Z" fill="#FFE072"/>
  </g>
  <g clip-path="url(#clip12_917_6467)">
    <path d="M252.2 150.396V159.047C251.693 169.916 209.846 169.916 210.353 159.051V150.4C210.353 162.401 252.2 162.401 252.2 150.396Z" fill="#FFC83D"/>
    <path d="M231.275 159.644C242.832 159.644 252.2 155.795 252.2 151.047C252.2 146.298 242.832 142.449 231.275 142.449C219.719 142.449 210.35 146.298 210.35 151.047C210.35 155.795 219.719 159.644 231.275 159.644Z" fill="#FFE072"/>
  </g>
  <g clip-path="url(#clip13_917_6467)">
    <path d="M254 139.596V148.247C253.493 159.115 211.646 159.115 212.153 148.25V139.599C212.153 151.6 254 151.6 254 139.596Z" fill="#FFC32D"/>
    <path d="M233.075 148.845C244.631 148.845 254 144.996 254 140.248C254 135.5 244.631 131.65 233.075 131.65C221.518 131.65 212.15 135.5 212.15 140.248C212.15 144.996 221.518 148.845 233.075 148.845Z" fill="#FFE072"/>
  </g>
  <g clip-path="url(#clip14_917_6467)">
    <path d="M250.85 131.947V140.598C250.343 151.467 208.496 151.467 209.003 140.601V131.951C209.003 143.952 250.85 143.952 250.85 131.947Z" fill="#FFC83D"/>
    <path d="M229.925 141.195C241.482 141.195 250.85 137.346 250.85 132.597C250.85 127.849 241.482 124 229.925 124C218.368 124 209 127.849 209 132.597C209 137.346 218.368 141.195 229.925 141.195Z" fill="#FFE072"/>
  </g>
  <g clip-path="url(#clip15_917_6467)">
    <path d="M251.85 121.947V130.598C251.343 141.467 209.496 141.467 210.003 130.601V121.951C210.003 133.952 251.85 133.952 251.85 121.947Z" fill="#FFC83D"/>
    <path d="M230.925 131.195C242.482 131.195 251.85 127.346 251.85 122.597C251.85 117.849 242.482 114 230.925 114C219.368 114 210 117.849 210 122.597C210 127.346 219.368 131.195 230.925 131.195Z" fill="#FFE072"/>
  </g>
  <g clip-path="url(#clip16_917_6467)">
    <path d="M190.3 151.047V159.698C189.793 170.566 147.946 170.566 148.453 159.701V151.05C148.453 163.051 190.3 163.051 190.3 151.047Z" fill="#FFC32D"/>
    <path d="M169.375 160.294C180.932 160.294 190.3 156.445 190.3 151.697C190.3 146.949 180.932 143.1 169.375 143.1C157.818 143.1 148.45 146.949 148.45 151.697C148.45 156.445 157.818 160.294 169.375 160.294Z" fill="#FFE072"/>
  </g>
  <g clip-path="url(#clip17_917_6467)">
    <path d="M177.261 132.361L182.447 139.286C188.555 148.29 155.059 173.373 148.953 164.372L143.767 157.447C150.961 167.053 184.457 141.97 177.261 132.361Z" fill="#FFC83D"/>
    <path d="M166.056 152.307C175.306 145.38 180.498 136.683 177.652 132.883C174.806 129.082 164.999 131.616 155.749 138.543C146.499 145.47 141.307 154.167 144.153 157.968C146.999 161.768 156.805 159.234 166.056 152.307Z" fill="#FFE072"/>
  </g>
  <g clip-path="url(#clip18_917_6467)">
    <path d="M122 150.188V159.1C121.479 170.298 78.4823 170.298 79.0035 159.104V150.191C79.0035 162.556 122 162.556 122 150.188Z" fill="#FFC32D"/>
    <path d="M100.5 159.716C112.374 159.716 122 155.75 122 150.858C122 145.966 112.374 142 100.5 142C88.6259 142 79 145.966 79 150.858C79 155.75 88.6259 159.716 100.5 159.716Z" fill="#FFE072"/>
  </g>
  <path d="M61.0013 150.188V159.1C60.4801 170.298 17.4835 170.298 18.0047 159.104V150.191C18.0047 162.556 61.0013 162.556 61.0013 150.188Z" fill="#F1F1F1"/>
  <path d="M39.5012 159.216C39.1567 159.216 38.8141 159.212 38.4736 159.206L38.4638 159.706C37.7635 159.692 37.072 159.664 36.3908 159.624L36.4206 159.125C35.7268 159.083 35.0439 159.028 34.3738 158.96L34.3232 159.457C33.623 159.386 32.9363 159.3 32.2651 159.202L32.3379 158.707C31.6472 158.605 30.9735 158.489 30.3187 158.36L30.2219 158.851C29.5255 158.713 28.8499 158.561 28.1975 158.394L28.3211 157.91C27.6392 157.736 26.9839 157.546 26.358 157.343L26.2036 157.819C25.5209 157.597 24.8715 157.359 24.2592 157.105L24.4505 156.643C23.7934 156.371 23.1824 156.082 22.6216 155.779L22.3836 156.218C21.7364 155.868 21.1511 155.497 20.6344 155.109L20.9348 154.709C20.3615 154.278 19.8854 153.831 19.5112 153.374L19.1243 153.691C18.6506 153.112 18.3179 152.507 18.1433 151.882L18.6248 151.747C18.5428 151.454 18.5012 151.157 18.5012 150.858C18.5012 150.559 18.5428 150.262 18.6248 149.969L18.1433 149.834C18.3179 149.209 18.6506 148.604 19.1243 148.025L19.5112 148.342C19.8854 147.885 20.3615 147.437 20.9348 147.006L20.6344 146.607C21.1511 146.218 21.7364 145.848 22.3836 145.497L22.6216 145.937C23.1824 145.634 23.7934 145.345 24.4505 145.073L24.2592 144.611C24.8715 144.357 25.5209 144.119 26.2036 143.897L26.358 144.373C26.9839 144.169 27.6392 143.98 28.3211 143.806L28.1975 143.322C28.8499 143.155 29.5255 143.003 30.2218 142.865L30.3187 143.356C30.9735 143.226 31.6472 143.111 32.3379 143.009L32.2651 142.514C32.9363 142.415 33.623 142.33 34.3232 142.259L34.3738 142.756C35.0439 142.688 35.7268 142.633 36.4206 142.591L36.3908 142.092C37.072 142.051 37.7635 142.024 38.4638 142.01L38.4736 142.51C38.8141 142.503 39.1567 142.5 39.5012 142.5C39.8458 142.5 40.1884 142.503 40.5289 142.51L40.5386 142.01C41.2389 142.024 41.9305 142.051 42.6116 142.092L42.5818 142.591C43.2757 142.633 43.9585 142.688 44.6286 142.756L44.6793 142.259C45.3795 142.33 46.0661 142.415 46.7374 142.514L46.6646 143.009C47.3552 143.111 48.029 143.226 48.6837 143.356L48.7806 142.865C49.4769 143.003 50.1526 143.155 50.8049 143.322L50.6813 143.806C51.3633 143.98 52.0186 144.169 52.6444 144.373L52.7988 143.897C53.4816 144.119 54.1309 144.357 54.7432 144.611L54.5519 145.073C55.209 145.345 55.8201 145.634 56.3809 145.937L56.6188 145.497C57.266 145.848 57.8514 146.218 58.3681 146.607L58.0676 147.006C58.6409 147.437 59.117 147.885 59.4912 148.342L59.8781 148.025C60.3519 148.603 60.6845 149.209 60.8592 149.834L60.3776 149.969C60.4596 150.262 60.5012 150.559 60.5012 150.858C60.5012 151.157 60.4596 151.454 60.3776 151.747L60.8592 151.882C60.6845 152.507 60.3519 153.112 59.8781 153.691L59.4912 153.374C59.117 153.831 58.6409 154.278 58.0676 154.709L58.3681 155.109C57.8514 155.497 57.266 155.868 56.6188 156.218L56.3809 155.779C55.8201 156.082 55.209 156.371 54.5519 156.643L54.7432 157.105C54.1309 157.359 53.4816 157.597 52.7988 157.819L52.6444 157.343C52.0186 157.546 51.3633 157.736 50.6813 157.91L50.8049 158.394C50.1526 158.561 49.477 158.713 48.7806 158.851L48.6837 158.36C48.029 158.489 47.3552 158.605 46.6646 158.707L46.7374 159.202C46.0661 159.3 45.3795 159.386 44.6793 159.457L44.6286 158.96C43.9585 159.028 43.2757 159.083 42.5818 159.125L42.6116 159.624C41.9305 159.664 41.2389 159.692 40.5386 159.706L40.5288 159.206C40.1884 159.212 39.8458 159.216 39.5012 159.216Z" fill="#F9F9F9" stroke="#DCDCDC" stroke-dasharray="2 2"/>
  <path d="M33.5 152L44.5 147" stroke="#DCDCDC" stroke-linecap="round"/>
  <path d="M33.9999 147.191L45.3277 152.109" stroke="#DCDCDC" stroke-linecap="round"/>
  <defs>
    <clipPath id="clip0_917_6467">
      <rect width="41.85" height="24.75" fill="white" transform="translate(339.15 141.949)"/>
    </clipPath>
    <clipPath id="clip1_917_6467">
      <rect width="41.85" height="24.75" fill="white" transform="translate(340.95 131.15)"/>
    </clipPath>
    <clipPath id="clip2_917_6467">
      <rect width="41.85" height="24.75" fill="white" transform="translate(336 123.5)"/>
    </clipPath>
    <clipPath id="clip3_917_6467">
      <rect width="41.85" height="24.75" fill="white" transform="translate(339.15 113.15)"/>
    </clipPath>
    <clipPath id="clip4_917_6467">
      <rect width="41.85" height="24.75" fill="white" transform="translate(339.15 101)"/>
    </clipPath>
    <clipPath id="clip5_917_6467">
      <rect width="41.85" height="24.75" fill="white" transform="translate(339 90)"/>
    </clipPath>
    <clipPath id="clip6_917_6467">
      <rect width="41.85" height="24.75" fill="white" transform="translate(336 78)"/>
    </clipPath>
    <clipPath id="clip7_917_6467">
      <rect width="41.85" height="24.75" fill="white" transform="translate(275.15 141.801)"/>
    </clipPath>
    <clipPath id="clip8_917_6467">
      <rect width="41.85" height="24.75" fill="white" transform="translate(276.95 131)"/>
    </clipPath>
    <clipPath id="clip9_917_6467">
      <rect width="41.85" height="24.75" fill="white" transform="translate(272 123.35)"/>
    </clipPath>
    <clipPath id="clip10_917_6467">
      <rect width="41.85" height="24.75" fill="white" transform="translate(275.15 113)"/>
    </clipPath>
    <clipPath id="clip11_917_6467">
      <rect width="41.85" height="24.75" fill="white" transform="translate(275 102)"/>
    </clipPath>
    <clipPath id="clip12_917_6467">
      <rect width="41.85" height="24.75" fill="white" transform="translate(210.35 142.449)"/>
    </clipPath>
    <clipPath id="clip13_917_6467">
      <rect width="41.85" height="24.75" fill="white" transform="translate(212.15 131.65)"/>
    </clipPath>
    <clipPath id="clip14_917_6467">
      <rect width="41.85" height="24.75" fill="white" transform="translate(209 124)"/>
    </clipPath>
    <clipPath id="clip15_917_6467">
      <rect width="41.85" height="24.75" fill="white" transform="translate(210 114)"/>
    </clipPath>
    <clipPath id="clip16_917_6467">
      <rect width="41.85" height="24.75" fill="white" transform="translate(148.45 143.1)"/>
    </clipPath>
    <clipPath id="clip17_917_6467">
      <rect width="41.85" height="24.75" fill="white" transform="translate(139 151.086) rotate(-36.8274)"/>
    </clipPath>
    <clipPath id="clip18_917_6467">
      <rect width="43" height="25.5" fill="white" transform="translate(79 142)"/>
    </clipPath>
  </defs>
</svg>
