<svg width="328" height="128" viewBox="0 0 328 128" fill="none" xmlns="http://www.w3.org/2000/svg">
  <g clip-path="url(#clip0_1043_1921)">
    <path d="M131.14 19.3799C121.71 19.2199 112.29 18.9799 102.89 18.6799C99.0799 18.5599 95.9299 21.3899 95.9299 24.9199V58.34C95.9299 61.83 99.0099 64.6399 102.76 64.5899C111.93 64.4599 121.41 64.36 131.06 64.2799C134.76 64.25 137.74 61.4599 137.74 58.0299V25.6299C137.74 22.2199 134.79 19.4499 131.12 19.3899L131.14 19.3799Z" fill="#E9ECF5"/>
    <path d="M51.63 66.2401C60.34 65.9501 69.87 65.6901 80 65.4801C83.85 65.4001 86.92 62.6001 86.92 59.1701V23.9701C86.92 20.6001 83.95 17.8301 80.17 17.6601C70.7 17.2501 61.24 16.7701 51.81 16.2301C47.73 16.0001 44.28 18.8901 44.28 22.5301V59.9201C44.28 63.5001 47.62 66.3701 51.63 66.2301V66.2401Z" fill="#E9ECF5"/>
    <path d="M191.93 64.3199C201.88 64.3799 211.69 64.4699 221.21 64.5999C224.92 64.6499 227.96 61.8299 227.96 58.3299V24.9499C227.96 21.3999 224.84 18.5699 221.08 18.6799C211.33 18.9799 201.59 19.1999 191.88 19.3499C188.25 19.4099 185.32 22.1899 185.32 25.6199V58.0499C185.32 61.4999 188.28 64.2999 191.93 64.3199Z" fill="#EDF0F8"/>
    <mask id="mask0_1043_1921" style="mask-type:luminance" maskUnits="userSpaceOnUse" x="194" y="30" width="23" height="24">
      <path d="M216.48 30.98H194.34V53.12H216.48V30.98Z" fill="white"/>
    </mask>
    <g mask="url(#mask0_1043_1921)">
      <path d="M216.48 42.07C213.61 42.25 210.9 43.47 208.86 45.5C206.82 47.53 205.6 50.24 205.43 53.12H205.39C205.21 50.25 203.99 47.54 201.96 45.5C199.93 43.47 197.22 42.24 194.34 42.07V42.03C197.21 41.85 199.92 40.63 201.96 38.6C204 36.57 205.22 33.86 205.39 30.98H205.43C205.61 33.85 206.83 36.56 208.86 38.6C210.9 40.63 213.6 41.86 216.48 42.03V42.07Z" fill="white"/>
    </g>
    <path d="M275.76 16.2302C265.77 16.8102 255.8 17.3102 245.85 17.7402C242.26 17.8902 239.44 20.6602 239.44 24.0202V59.1502C239.44 62.5702 242.36 65.3602 246 65.4302C256.69 65.6502 266.76 65.9202 275.95 66.2302C279.75 66.3602 282.9 63.5102 282.9 59.9502V22.5002C282.9 18.8702 279.63 16.0002 275.76 16.2302Z" fill="#EDF0F8"/>
    <path d="M251.72 44.2101C251.72 40.4801 253.59 36.5801 255.78 36.5801C256.99 36.5801 257.97 37.3101 259.51 39.5001C258.05 41.7701 257.15 43.1501 257.15 43.1501C255.2 46.2301 254.55 46.8801 253.5 46.8801C252.45 46.9601 251.72 45.9901 251.72 44.2101ZM264.45 42.8401L263.07 40.5701C262.74 40.0001 262.34 39.4401 262.02 38.9501C263.23 37.0801 264.21 36.1101 265.43 36.1101C267.87 36.1101 269.81 39.7601 269.81 44.3001C269.81 46.0001 269.24 46.9701 268.11 46.9701C266.98 46.9701 266.57 46.2401 264.46 42.8301M260.96 37.3201C259.18 34.9601 257.63 34.0801 255.85 34.0801C252.12 34.0801 249.28 39.0301 249.28 44.2201C249.28 47.4601 250.82 49.4901 253.42 49.4901C255.29 49.4901 256.58 48.6001 259.02 44.3801C259.02 44.3801 259.99 42.6001 260.72 41.3801C260.96 41.7901 261.21 42.2001 261.45 42.6801L262.58 44.6301C264.77 48.3601 265.99 49.5801 268.18 49.5801C270.7 49.5801 272.08 47.4701 272.08 44.1401C272 38.6201 269.08 34.0801 265.59 34.0801C263.72 34.0801 262.26 35.5401 260.97 37.3201" fill="white"/>
    <path d="M296.02 20.6502V60.8402C296.02 64.1702 298.79 66.9302 302.33 67.1402C309.81 67.5902 315.93 68.0902 320.37 68.6402C324.41 69.1502 327.99 66.2002 327.99 62.3802V19.2502C327.99 15.5502 324.62 12.6502 320.69 12.9602C314.54 13.4502 308.39 13.9202 302.25 14.3502C298.73 14.6002 296.01 17.3402 296.01 20.6502H296.02Z" fill="url(#paint0_linear_1043_1921)"/>
    <path d="M317.46 34.2598H314.82L319.62 47.3798H322.26L317.46 34.2598ZM309.84 34.2598L305.04 47.3798H307.73L308.7 44.6198H313.74L314.72 47.3798H317.41L312.6 34.2598H309.84ZM309.58 42.1898L311.22 37.5798L312.87 42.1898H309.59H309.58Z" fill="white"/>
    <path d="M24.43 14.17C18.92 13.79 13.42 13.39 7.92 12.96C3.66 12.64 0 15.56 0 19.26V62.38C0 66.21 3.9 69.15 8.28 68.64C12.37 68.17 17.81 67.74 24.36 67.34C28.19 67.11 31.16 64.36 31.16 61.03V20.47C31.16 17.17 28.23 14.43 24.43 14.17Z" fill="url(#paint1_linear_1043_1921)"/>
    <mask id="mask1_1043_1921" style="mask-type:luminance" maskUnits="userSpaceOnUse" x="0" y="29" width="27" height="25">
      <path d="M26.24 29.3398H0V53.1498H26.24V29.3398Z" fill="white"/>
    </mask>
    <g mask="url(#mask1_1043_1921)">
      <path d="M19.5001 41.7801C21.9901 44.2601 21.8701 48.2401 19.5101 50.5901C18.2901 51.8101 16.8101 52.4301 15.0901 52.4401C13.3701 52.4401 11.9001 51.8201 10.6601 50.6301C9.20007 52.0101 7.47007 52.6301 5.47007 52.4001C3.96007 52.2201 2.68007 51.5601 1.65007 50.4401C0.520066 49.2001 -0.0299341 47.7401 6.58515e-05 46.0801C0.0300658 44.4201 0.660066 42.9901 1.81007 41.7901C0.430066 40.3301 -0.189934 38.6001 0.0400659 36.6001C0.220066 35.0901 0.880066 33.8101 2.00007 32.7801C3.23007 31.6501 4.69007 31.1001 6.35007 31.1301C8.01007 31.1601 9.44007 31.7901 10.6401 32.9501C12.1001 31.5701 13.8301 30.9501 15.8301 31.1801C17.3401 31.3601 18.6201 32.0201 19.6501 33.1401C20.7801 34.3701 21.3301 35.8301 21.3001 37.4901C21.2701 39.1501 20.6401 40.5801 19.4801 41.7801H19.5001ZM6.16007 34.2601C6.07007 34.2601 5.90007 34.2801 5.75007 34.3001C4.57007 34.5201 3.74007 35.1801 3.35007 36.3201C2.96007 37.4601 3.20007 38.5101 4.02007 39.4001C4.42007 39.8301 4.85007 40.2301 5.26007 40.6501C5.32007 40.7101 5.39007 40.7801 5.44007 40.8501C5.89007 41.4401 5.83007 42.2201 5.29007 42.7701C4.89007 43.1701 4.48007 43.5701 4.09007 43.9801C3.35007 44.7401 3.04007 45.6501 3.23007 46.6901C3.45007 47.8501 4.14007 48.6601 5.26007 49.0301C6.39007 49.4101 7.43007 49.1701 8.31007 48.3501C8.74007 47.9501 9.15007 47.5201 9.57007 47.1001C9.63007 47.0401 9.70007 46.9801 9.77007 46.9201C10.3601 46.4701 11.1401 46.5301 11.6801 47.0601C12.0801 47.4601 12.4801 47.8701 12.8901 48.2601C13.6301 48.9801 14.5101 49.3001 15.5401 49.1301C16.7301 48.9301 17.5501 48.2501 17.9401 47.1101C18.3301 45.9701 18.0901 44.9201 17.2701 44.0301C16.8701 43.5901 16.4301 43.1901 16.0201 42.7701C15.9301 42.6801 15.8401 42.5801 15.7701 42.4701C15.4101 41.8901 15.5001 41.1801 16.0001 40.6801C16.4301 40.2501 16.8601 39.8301 17.2801 39.3901C17.9801 38.6501 18.2501 37.7601 18.0601 36.7601C17.8401 35.6001 17.1501 34.7901 16.0301 34.4201C14.9001 34.0401 13.8701 34.2801 12.9901 35.0901C12.5501 35.4901 12.1501 35.9301 11.7301 36.3401C11.6701 36.4001 11.6001 36.4601 11.5301 36.5201C10.9401 36.9701 10.1601 36.9101 9.62007 36.3801C9.22007 35.9801 8.82007 35.5801 8.42007 35.1801C7.82007 34.5801 7.09007 34.2701 6.18007 34.2601H6.16007Z" fill="white"/>
    </g>
    <path d="M75.55 39.89C76.06 38.27 75.88 36.5 75.08 35.03C73.86 32.78 71.42 31.62 69.03 32.16C67.9699 30.89 66.4399 30.16 64.8399 30.17C62.3999 30.17 60.23 31.84 59.48 34.32C57.91 34.66 56.56 35.71 55.77 37.19C54.54 39.44 54.82 42.28 56.46 44.21C55.95 45.83 56.13 47.6 56.93 49.07C58.15 51.32 60.59 52.48 62.98 51.94C64.04 53.21 65.5699 53.94 67.1699 53.93C69.6099 53.93 71.78 52.26 72.53 49.78C74.1 49.44 75.4499 48.39 76.24 46.91C77.4599 44.66 77.18 41.82 75.55 39.9V39.89ZM67.16 52.36C66.18 52.36 65.2299 52 64.4899 51.33C64.5199 51.31 64.58 51.28 64.62 51.25L69.0599 48.52C69.2899 48.38 69.4299 48.13 69.4199 47.85V41.18L71.3 42.33C71.3 42.33 71.3299 42.36 71.3399 42.38V47.9C71.3399 50.36 69.47 52.34 67.16 52.35V52.36ZM58.18 48.28C57.69 47.38 57.52 46.32 57.68 45.3C57.71 45.32 57.77 45.36 57.81 45.38L62.25 48.11C62.47 48.25 62.75 48.25 62.98 48.11L68.4 44.78V47.09C68.4 47.09 68.39 47.14 68.37 47.15L63.88 49.91C61.88 51.14 59.3299 50.41 58.17 48.28H58.18ZM57.02 37.96C57.51 37.06 58.28 36.37 59.19 36.01V41.63C59.19 41.91 59.33 42.17 59.55 42.3L64.97 45.63L63.09 46.78C63.09 46.78 63.05 46.8 63.03 46.78L58.54 44.02C56.55 42.79 55.86 40.07 57.01 37.94L57.02 37.96ZM72.43 41.78L67.01 38.45L68.89 37.3C68.89 37.3 68.9299 37.28 68.9499 37.3L73.44 40.06C75.44 41.29 76.12 44.01 74.97 46.14C74.48 47.04 73.71 47.73 72.8 48.09V42.46C72.8 42.18 72.67 41.92 72.44 41.79L72.43 41.78ZM74.3099 38.78C74.3099 38.78 74.22 38.72 74.18 38.7L69.7399 35.97C69.5199 35.83 69.24 35.83 69.01 35.97L63.59 39.3V36.99C63.59 36.99 63.5999 36.94 63.62 36.93L68.11 34.17C70.11 32.94 72.67 33.67 73.82 35.8C74.31 36.7 74.48 37.75 74.32 38.77L74.3099 38.78ZM62.56 42.9L60.68 41.75C60.68 41.75 60.65 41.72 60.64 41.7V36.18C60.64 33.72 62.52 31.73 64.82 31.73C65.8 31.73 66.7399 32.09 67.4899 32.76C67.4599 32.78 67.4 32.81 67.36 32.84L62.92 35.57C62.6899 35.71 62.55 35.96 62.56 36.24V42.9ZM63.58 40.56L65.9899 39.07L68.4 40.56V43.53L65.9899 45.02L63.58 43.53V40.56Z" fill="white"/>
    <path d="M221.4 121.55C221.4 129.8 109.06 129.8 109.06 121.55V102.32C109.06 113.09 221.4 113.09 221.4 102.32V121.55Z" fill="#D8DCE9"/>
    <path d="M165.23 111.34C196.25 111.34 221.4 107.49 221.4 102.73C221.4 97.9701 196.25 94.1201 165.23 94.1201C134.21 94.1201 109.06 97.9701 109.06 102.73C109.06 107.49 134.21 111.34 165.23 111.34Z" fill="#E6EAF4"/>
    <path d="M205.64 99.6301C205.64 105.53 125.31 105.53 125.31 99.6301V86.4601C125.31 94.1601 205.64 94.0301 205.64 86.3301V99.6301Z" fill="#D8DCE9"/>
    <path d="M165.47 92.4799C187.65 92.4799 205.63 89.8899 205.63 86.7099C205.63 83.5299 187.65 80.9399 165.47 80.9399C143.29 80.9399 125.31 83.5299 125.31 86.7099C125.31 89.8899 143.29 92.4799 165.47 92.4799Z" fill="#E6EAF4"/>
    <path d="M165.08 67.83C183.81 67.83 198.99 52.65 198.99 33.92C198.99 15.19 183.81 0 165.08 0C146.35 0 131.17 15.18 131.17 33.91C131.17 52.64 146.35 67.82 165.08 67.82V67.83Z" fill="#FFE072"/>
    <g opacity="0.75">
      <path d="M165.08 67.83C183.81 67.83 198.99 52.65 198.99 33.92C198.99 15.19 183.81 0 165.08 0C146.35 0 131.17 15.18 131.17 33.91C131.17 52.64 146.35 67.82 165.08 67.82V67.83Z" fill="url(#paint2_linear_1043_1921)"/>
    </g>
    <path d="M165.08 60.9501C180.01 60.9501 192.11 48.8501 192.11 33.9201C192.11 18.9901 180.01 6.89014 165.08 6.89014C150.15 6.89014 138.05 18.9901 138.05 33.9201C138.05 48.8501 150.15 60.9501 165.08 60.9501Z" fill="#FFC83D"/>
    <g opacity="0.75">
      <path d="M165.08 60.9501C180.01 60.9501 192.11 48.8501 192.11 33.9201C192.11 18.9901 180.01 6.89014 165.08 6.89014C150.15 6.89014 138.05 18.9901 138.05 33.9201C138.05 48.8501 150.15 60.9501 165.08 60.9501Z" fill="url(#paint3_radial_1043_1921)"/>
    </g>
    <path d="M122.35 31.7998V35.4698H118.6V39.1498H116.75V35.4698H113.04V31.7998H107.42V50.4098H113.04V42.9898H114.86V46.6798H120.48V42.9898H122.36V50.4098H127.93V31.7998H122.36H122.35Z" fill="white"/>
    <path d="M217.95 43.8102C218.27 42.5002 218.54 41.2002 218.74 39.9102C223.09 38.0902 224.76 34.6802 223.76 29.6702C223.76 29.6702 220.46 31.1902 219.19 35.4402C219.3 33.1802 219.24 30.9902 219 28.8902H219.02C219.06 28.9702 219.08 29.0402 219.11 29.1202C222.16 26.1202 222.46 22.7002 220 18.8702C220 18.8702 218.23 20.7402 218.03 23.9202C217.69 22.6602 217.28 21.4402 216.8 20.2802C218.83 16.8002 218.3 13.5302 215.19 10.4802C215.19 10.4802 213.92 12.6402 214.36 15.6902C213.76 14.8002 213.11 13.9702 212.41 13.1902C213.61 9.79019 212.59 6.97019 209.35 4.74019C209.35 4.74019 208.29 7.53019 209.84 10.7402C209.32 10.3202 208.77 9.93019 208.2 9.56019C208.12 6.03019 204.02 4.34019 199.97 4.51019C199.81 5.05019 203.09 10.7802 207.56 10.1302C208.57 10.7702 209.52 11.5002 210.4 12.3102C208.4 10.8202 206.12 10.7202 203.55 12.0002C207.87 16.5802 212.43 14.5302 212.48 14.5102C213.82 16.1502 214.93 18.0302 215.83 20.0902C213.44 17.0102 210.57 16.3002 207.2 17.9802C211.17 22.1902 215.34 20.8002 216.02 20.5302C216.82 22.4402 217.42 24.4902 217.82 26.6702C215.73 23.9802 212.93 23.1702 209.41 24.2502C212.48 28.8002 216.38 29.1102 218.17 28.9902C218.43 31.2902 218.49 33.7102 218.32 36.2002C217.45 33.4302 215.4 31.7302 212.16 31.1202C212.9 36.7102 216.35 38.7802 217.97 39.4602C217.68 41.4002 217.25 43.3802 216.67 45.3602C216.57 42.4902 215.08 40.3002 212.18 38.7802C211.3 44.5902 214.29 47.6002 215.59 48.6102C214.87 50.5402 214 52.4402 212.99 54.2902C213.36 51.4802 212.29 49.0002 209.77 46.8502C207.63 52.4302 209.8 56.1902 210.95 57.6602C209.36 60.0102 207.53 62.2102 205.44 64.1602C207.99 61.2502 208.46 57.7402 206.81 53.6302C200.21 59.4202 202.28 66.1102 202.45 66.6502C200.64 67.9902 198.68 69.1502 196.57 70.1102C196.14 70.2402 195.7 70.4002 195.26 70.5902C199.16 68.0702 200.72 64.2302 199.92 59.0502C192.05 63.2102 191.76 70.0602 191.82 71.8202C191.8 71.8202 191.77 71.8402 191.75 71.8402L191.93 72.5402C191.93 72.5402 191.88 72.5802 191.86 72.6002C196.7 76.1302 201.37 75.6302 205.85 71.1202C205.85 71.1202 203.28 69.3802 199.45 69.6002C200.76 68.8602 202 68.0502 203.17 67.1602C208.73 69.1402 213.06 67.3402 216.15 61.7602C216.15 61.7602 212.25 60.5002 207.9 62.8502C209.21 61.4202 210.42 59.9002 211.5 58.3002C211.54 58.3402 211.56 58.3602 211.56 58.3602C211.67 58.1502 211.77 57.9502 211.87 57.7502C213.73 54.9202 215.24 51.8902 216.39 48.8002C216.39 48.8802 216.37 48.9502 216.36 49.0302C220.95 47.9202 223.11 44.8002 222.85 39.6802C222.85 39.6802 219.88 40.5302 217.94 43.8002H217.96L217.95 43.8102Z" fill="url(#paint4_linear_1043_1921)"/>
    <path d="M210.74 58.1098C216.09 58.2898 219.36 55.5298 220.55 49.8398C220.55 49.8398 213.67 49.8498 210.74 58.1098Z" fill="#FED879"/>
    <path d="M111.05 44.0402C110.73 42.7302 110.46 41.4302 110.26 40.1402C105.91 38.3202 104.24 34.9102 105.24 29.9002C105.24 29.9002 108.54 31.4202 109.81 35.6702C109.7 33.4102 109.76 31.2202 110 29.1202H109.98C109.94 29.2002 109.92 29.2702 109.89 29.3502C106.84 26.3502 106.54 22.9302 109 19.1002C109 19.1002 110.77 20.9702 110.97 24.1502C111.31 22.8902 111.72 21.6702 112.2 20.5102C110.17 17.0302 110.7 13.7602 113.81 10.7102C113.81 10.7102 115.08 12.8702 114.64 15.9202C115.24 15.0302 115.89 14.2002 116.59 13.4202C115.39 10.0202 116.41 7.20017 119.65 4.97017C119.65 4.97017 120.71 7.76017 119.16 10.9702C119.68 10.5502 120.23 10.1602 120.8 9.79017C120.88 6.26017 124.98 4.57017 129.03 4.74017C129.19 5.28017 125.91 11.0102 121.44 10.3602C120.43 11.0002 119.48 11.7302 118.6 12.5402C120.6 11.0502 122.88 10.9502 125.45 12.2302C121.13 16.8102 116.57 14.7602 116.52 14.7402C115.18 16.3802 114.07 18.2602 113.17 20.3202C115.56 17.2402 118.43 16.5302 121.8 18.2102C117.83 22.4202 113.66 21.0302 112.98 20.7602C112.18 22.6702 111.58 24.7202 111.18 26.9002C113.27 24.2102 116.07 23.4002 119.59 24.4802C116.52 29.0302 112.62 29.3402 110.83 29.2202C110.57 31.5202 110.51 33.9402 110.68 36.4302C111.55 33.6602 113.6 31.9602 116.84 31.3502C116.1 36.9402 112.65 39.0102 111.03 39.6902C111.32 41.6302 111.75 43.6102 112.33 45.5902C112.43 42.7202 113.92 40.5302 116.82 39.0102C117.7 44.8202 114.71 47.8302 113.41 48.8402C114.13 50.7702 115 52.6702 116.01 54.5202C115.64 51.7102 116.71 49.2302 119.23 47.0802C121.37 52.6602 119.2 56.4202 118.05 57.8902C119.64 60.2402 121.47 62.4402 123.56 64.3902C121.01 61.4802 120.54 57.9702 122.19 53.8602C128.79 59.6502 126.72 66.3402 126.55 66.8802C128.36 68.2202 130.32 69.3802 132.43 70.3402C132.86 70.4702 133.3 70.6302 133.74 70.8202C129.84 68.3002 128.28 64.4602 129.08 59.2802C136.95 63.4402 137.24 70.2902 137.18 72.0502C137.2 72.0502 137.23 72.0702 137.26 72.0702L137.08 72.7702C137.08 72.7702 137.13 72.8102 137.15 72.8302C132.31 76.3602 127.64 75.8602 123.16 71.3502C123.16 71.3502 125.73 69.6102 129.56 69.8302C128.25 69.0902 127.01 68.2802 125.84 67.3902C120.28 69.3702 115.95 67.5702 112.86 61.9902C112.86 61.9902 116.76 60.7302 121.11 63.0802C119.8 61.6502 118.59 60.1302 117.5 58.5302C117.46 58.5702 117.44 58.5902 117.44 58.5902C117.33 58.3802 117.23 58.1802 117.13 57.9802C115.27 55.1502 113.76 52.1202 112.61 49.0302C112.61 49.1102 112.63 49.1802 112.64 49.2602C108.05 48.1502 105.89 45.0302 106.15 39.9102C106.15 39.9102 109.12 40.7602 111.06 44.0302H111.04L111.05 44.0402Z" fill="url(#paint5_linear_1043_1921)"/>
    <path d="M118.26 58.3301C112.91 58.5101 109.64 55.7501 108.45 50.0601C108.45 50.0601 115.33 50.0701 118.26 58.3301Z" fill="#FED878"/>
    <g filter="url(#filter0_d_1043_1921)">
      <path d="M148 41.8199V27.6499H150.68V39.3199H156.78V41.8199H148ZM158.06 41.8199V27.6499H160.74V39.3199H166.84V41.8199H158.06ZM167.92 41.8199V27.6499H170.32L175 37.0599L179.68 27.6499H182.08V41.8199H179.58V33.3599L175.47 41.8199H174.53L170.42 33.3599V41.8199H167.92Z" fill="#FFB42B"/>
      <path d="M148.13 41.17V27H150.81V38.67H156.91V41.17H148.13ZM158.19 41.17V27H160.87V38.67H166.97V41.17H158.19ZM168.05 41.17V27H170.45L175.13 36.41L179.81 27H182.21V41.17H179.71V32.71L175.6 41.17H174.66L170.55 32.71V41.17H168.05Z" fill="white"/>
    </g>
  </g>
  <defs>
    <filter id="filter0_d_1043_1921" x="138" y="17" width="54.21" height="34.8198" filterUnits="userSpaceOnUse" color-interpolation-filters="sRGB">
      <feFlood flood-opacity="0" result="BackgroundImageFix"/>
      <feColorMatrix in="SourceAlpha" type="matrix" values="0 0 0 0 0 0 0 0 0 0 0 0 0 0 0 0 0 0 127 0" result="hardAlpha"/>
      <feOffset/>
      <feGaussianBlur stdDeviation="5"/>
      <feColorMatrix type="matrix" values="0 0 0 0 0.988235 0 0 0 0 0.713726 0 0 0 0 0.219608 0 0 0 0.75 0"/>
      <feBlend mode="normal" in2="BackgroundImageFix" result="effect1_dropShadow_1043_1921"/>
      <feBlend mode="normal" in="SourceGraphic" in2="effect1_dropShadow_1043_1921" result="shape"/>
    </filter>
    <linearGradient id="paint0_linear_1043_1921" x1="328" y1="40.8202" x2="296.02" y2="40.8202" gradientUnits="userSpaceOnUse">
      <stop stop-color="white"/>
      <stop offset="1" stop-color="#E5E9F3"/>
    </linearGradient>
    <linearGradient id="paint1_linear_1043_1921" x1="31.16" y1="40.82" x2="0" y2="40.82" gradientUnits="userSpaceOnUse">
      <stop stop-color="#E5E9F3"/>
      <stop offset="1" stop-color="white"/>
    </linearGradient>
    <linearGradient id="paint2_linear_1043_1921" x1="188.5" y1="60.5" x2="148.5" y2="6" gradientUnits="userSpaceOnUse">
      <stop stop-color="#FFC95C"/>
      <stop offset="0.075" stop-color="#FFCF62"/>
      <stop offset="0.14" stop-color="#FFD96B"/>
      <stop offset="1" stop-color="#FFE072"/>
    </linearGradient>
    <radialGradient id="paint3_radial_1043_1921" cx="0" cy="0" r="1" gradientUnits="userSpaceOnUse" gradientTransform="translate(165.5 34.75) rotate(60.7887) scale(26.6376 26.6376)">
      <stop offset="0.975" stop-color="#FFC83D"/>
      <stop offset="1" stop-color="#FFC257"/>
    </radialGradient>
    <linearGradient id="paint4_linear_1043_1921" x1="207.89" y1="4.52019" x2="207.89" y2="74.9502" gradientUnits="userSpaceOnUse">
      <stop stop-color="#EBE1C5"/>
      <stop offset="0.74" stop-color="#FFD670"/>
    </linearGradient>
    <linearGradient id="paint5_linear_1043_1921" x1="121.11" y1="4.74017" x2="121.11" y2="75.1702" gradientUnits="userSpaceOnUse">
      <stop stop-color="#EBE1C5"/>
      <stop offset="0.74" stop-color="#FFD670"/>
    </linearGradient>
    <clipPath id="clip0_1043_1921">
      <rect width="328" height="127.74" fill="white"/>
    </clipPath>
  </defs>
</svg>
