<svg width="400" height="240" viewBox="0 0 400 240" fill="none" xmlns="http://www.w3.org/2000/svg">
  <rect width="400" height="240" rx="11.1111" fill="white"/>
  <path d="M264 204H139V207H264V204Z" fill="url(#paint0_linear_917_4801)"/>
  <path d="M322 204H273V207H322V204Z" fill="url(#paint1_linear_917_4801)"/>
  <path d="M118.021 39H58.975C54.5706 39 51 42.6881 51 47.2374V73.2692C51 77.8186 54.5706 81.5067 58.975 81.5067H68.8086C69.6158 81.5067 70.3699 81.9419 70.7957 82.652L74.0336 88.0856C74.7876 89.3501 76.5796 89.2906 77.2582 87.9848L79.9461 82.7849C80.3498 82.0015 81.1437 81.5113 82.0042 81.5113H118.025C122.429 81.5113 126 77.8232 126 73.2738V47.2374C126 42.6881 122.429 39 118.025 39H118.021Z" fill="#E5E7EA"/>
  <path d="M301.757 64H103.243C101.452 64 100 65.4826 100 67.3115V185.688C100 187.517 101.452 189 103.243 189H301.757C303.548 189 305 187.517 305 185.688V67.3115C305 65.4826 303.548 64 301.757 64Z" fill="#DEE0E3"/>
  <path d="M196.975 86H116.025C113.802 86 112 87.8485 112 90.1287V174.871C112 177.152 113.802 179 116.025 179H196.975C199.198 179 201 177.152 201 174.871V90.1287C201 87.8485 199.198 86 196.975 86Z" fill="#F2F4F7"/>
  <path d="M287.753 86H211.247C207.797 86 205 88.8688 205 92.4077V172.592C205 176.131 207.797 179 211.247 179H287.753C291.203 179 294 176.131 294 172.592V92.4077C294 88.8688 291.203 86 287.753 86Z" fill="#F2F4F7"/>
  <path d="M102.795 64H303.625C304.383 64 305 64.5998 305 65.3376V76H100V66.7184C100 65.2168 101.251 64 102.795 64Z" fill="#CACCD1"/>
  <path d="M269.6 146.811L132.162 178.059L133.588 184.599L271.025 153.351L269.6 146.811Z" fill="#8F969C"/>
  <path d="M202.5 169L183 204H222L202.5 169Z" fill="#8F969C"/>
  <path d="M166.452 158.946L156.42 136.233C155.263 133.613 152.245 132.447 149.679 133.629L127.44 143.875C124.874 145.057 123.733 148.139 124.89 150.76L134.922 173.473C136.079 176.093 139.098 177.259 141.663 176.077L163.902 165.832C166.468 164.649 167.609 161.567 166.452 158.946Z" fill="#FF7735"/>
  <path d="M279 141.696V116.304C279 113.375 276.691 111 273.843 111H249.157C246.309 111 244 113.375 244 116.304V141.696C244 144.625 246.309 147 249.157 147H273.843C276.691 147 279 144.625 279 141.696Z" fill="#427DFF"/>
  <path d="M332.718 65.2331L340.729 57.2188C341.09 56.857 341.09 56.2781 340.729 55.9162L336.086 51.2714C335.724 50.9095 335.145 50.9095 334.784 51.2714L326.773 59.2857C326.411 59.6475 325.832 59.6475 325.471 59.2857L323.165 56.9791C322.641 56.4544 321.741 56.7348 321.61 57.4675L319.015 71.9177C318.902 72.5509 319.453 73.0982 320.082 72.9851L334.526 70.389C335.258 70.2579 335.539 69.3578 335.014 68.8332L332.709 66.5266C332.347 66.1648 332.347 65.5859 332.709 65.2241L332.718 65.2331Z" fill="#E5E7EA"/>
  <path d="M106.5 73C107.881 73 109 71.8807 109 70.5C109 69.1193 107.881 68 106.5 68C105.119 68 104 69.1193 104 70.5C104 71.8807 105.119 73 106.5 73Z" fill="#9A9FA6"/>
  <path d="M114.5 73C115.881 73 117 71.8807 117 70.5C117 69.1193 115.881 68 114.5 68C113.119 68 112 69.1193 112 70.5C112 71.8807 113.119 73 114.5 73Z" fill="#9A9FA6"/>
  <path d="M325.286 158H285.714C282.557 158 280 160.586 280 163.779V191.132C280 194.324 282.557 196.91 285.714 196.91H293.555C293.839 196.91 294.101 197.059 294.252 197.301L296.911 201.571C297.262 202.132 298.066 202.146 298.434 201.594L301.307 197.279C301.462 197.05 301.715 196.91 301.99 196.91H325.286C328.443 196.91 331 194.324 331 191.132V163.779C331 160.586 328.443 158 325.286 158Z" fill="#D5D7DC"/>
  <path d="M36.801 99H56.199C57.7464 99 59 100.284 59 101.87V114.303C59 115.888 57.7464 117.173 56.199 117.173H53.4919C53.3526 117.173 53.2242 117.246 53.1502 117.367L50.7102 121.787C50.5383 122.066 50.1443 122.072 49.9637 121.798L47.4192 117.355C47.343 117.242 47.219 117.173 47.0841 117.173H36.801C35.2536 117.173 34 115.888 34 114.303V101.87C34 100.284 35.2536 99 36.801 99Z" fill="#E8EAED"/>
  <path d="M362.227 89H331.773C330.241 89 329 90.2843 329 91.8696V104.303C329 105.888 330.241 107.173 331.773 107.173H334.453C334.591 107.173 334.718 107.246 334.791 107.367L337.207 111.787C337.377 112.066 337.767 112.072 337.946 111.798L340.465 107.355C340.54 107.242 340.663 107.173 340.797 107.173H362.227C363.759 107.173 365 105.888 365 104.303V91.8696C365 90.2843 363.759 89 362.227 89Z" fill="#E8EAED"/>
  <path d="M120 49H59V53H120V49Z" fill="#D5D7DC"/>
  <path d="M113 57H59V61H113V57Z" fill="#D5D7DC"/>
  <path d="M91 66H59V69H91V66Z" fill="#D5D7DC"/>
  <path d="M290.5 181C292.433 181 294 179.433 294 177.5C294 175.567 292.433 174 290.5 174C288.567 174 287 175.567 287 177.5C287 179.433 288.567 181 290.5 181Z" fill="#E5E7EA"/>
  <path d="M305.5 181C307.433 181 309 179.433 309 177.5C309 175.567 307.433 174 305.5 174C303.567 174 302 175.567 302 177.5C302 179.433 303.567 181 305.5 181Z" fill="#E5E7EA"/>
  <path d="M320.5 181C322.433 181 324 179.433 324 177.5C324 175.567 322.433 174 320.5 174C318.567 174 317 175.567 317 177.5C317 179.433 318.567 181 320.5 181Z" fill="#E5E7EA"/>
  <path d="M202 169L193.947 204H183L202 169Z" fill="#757B80"/>
  <path d="M69.6802 161.01L81.468 162.665C82.1216 162.757 82.1967 163.823 81.5607 164.038L69.7729 167.973C69.3842 168.101 69 167.763 69 167.296V161.702C69 161.282 69.318 160.954 69.6757 161.005L69.6802 161.01Z" fill="#E5E7EA"/>
  <path d="M80.089 145.328L85.9251 157.065C86.2254 157.666 85.558 158.285 85.0699 157.859L75.2165 149.285C74.9203 149.023 74.9287 148.523 75.2374 148.28L79.2547 145.117C79.5342 144.897 79.9221 144.998 80.089 145.328Z" fill="#E5E7EA"/>
  <path d="M74.2323 178.017L84.0701 170.127C84.5719 169.725 85.2339 170.353 84.9177 170.936L78.5292 182.691C78.3353 183.048 77.8799 183.107 77.6142 182.809L74.1607 178.947C73.9203 178.681 73.954 178.247 74.2323 178.026V178.017Z" fill="#E5E7EA"/>
  <path d="M152.876 153.364C153.268 152.138 153.13 150.795 152.509 149.682C151.568 147.974 149.678 147.095 147.836 147.505C147.016 146.541 145.834 145.991 144.6 146C142.714 145.996 141.04 147.262 140.457 149.141C139.245 149.398 138.201 150.191 137.588 151.318C136.639 153.022 136.854 155.171 138.123 156.636C137.73 157.862 137.868 159.205 138.49 160.318C139.43 162.026 141.32 162.905 143.167 162.495C143.987 163.459 145.169 164.009 146.403 164C148.289 164.004 149.968 162.734 150.546 160.859C151.758 160.602 152.802 159.809 153.415 158.682C154.36 156.978 154.144 154.829 152.88 153.369L152.876 153.364ZM146.399 162.815C145.644 162.815 144.91 162.54 144.332 162.035C144.358 162.021 144.406 161.994 144.436 161.976L147.866 159.908C148.043 159.804 148.151 159.61 148.147 159.399V154.347L149.596 155.221C149.596 155.221 149.622 155.243 149.627 155.261V159.444C149.627 161.305 148.181 162.81 146.399 162.815ZM139.461 159.723C139.081 159.043 138.947 158.24 139.077 157.465C139.102 157.483 139.146 157.51 139.18 157.528L142.611 159.597C142.783 159.705 142.999 159.705 143.176 159.597L147.366 157.073V158.822C147.366 158.822 147.357 158.858 147.344 158.867L143.875 160.958C142.33 161.886 140.358 161.336 139.465 159.723H139.461ZM138.559 151.899C138.934 151.214 139.53 150.692 140.237 150.421C140.237 150.453 140.237 150.507 140.237 150.543V154.68C140.237 154.892 140.345 155.086 140.518 155.189L144.708 157.713L143.258 158.587C143.258 158.587 143.223 158.601 143.21 158.592L139.741 156.501C138.201 155.568 137.67 153.508 138.559 151.895V151.899ZM150.472 154.797L146.283 152.273L147.732 151.399C147.732 151.399 147.767 151.386 147.78 151.395L151.249 153.486C152.794 154.419 153.32 156.478 152.431 158.092C152.056 158.772 151.461 159.295 150.753 159.57V155.306C150.753 155.095 150.649 154.901 150.472 154.797ZM151.918 152.526C151.892 152.508 151.849 152.481 151.814 152.463L148.384 150.394C148.211 150.286 147.996 150.286 147.819 150.394L143.629 152.918V151.169C143.629 151.169 143.638 151.133 143.65 151.124L147.12 149.033C148.664 148.105 150.641 148.655 151.53 150.268C151.905 150.948 152.043 151.746 151.914 152.521L151.918 152.526ZM142.844 155.644L141.394 154.77C141.394 154.77 141.368 154.748 141.364 154.73V150.547C141.364 148.686 142.813 147.176 144.595 147.176C145.351 147.176 146.08 147.451 146.658 147.956C146.632 147.97 146.585 147.997 146.554 148.015L143.124 150.083C142.947 150.187 142.839 150.381 142.844 150.592V155.64V155.644ZM143.633 153.869L145.497 152.742L147.361 153.869V156.118L145.497 157.244L143.633 156.118V153.869Z" fill="white"/>
  <path d="M255.026 131.51C255.026 128.378 256.583 125.111 258.41 125.111C259.425 125.111 260.236 125.722 261.522 127.561C260.303 129.467 259.562 130.622 259.562 130.622C257.94 133.211 257.399 133.755 256.521 133.755C255.643 133.822 255.031 133.005 255.031 131.51M265.646 130.355L264.498 128.449C264.227 127.972 263.89 127.494 263.62 127.088C264.635 125.521 265.446 124.705 266.462 124.705C268.493 124.705 270.116 127.766 270.116 131.577C270.116 133.005 269.641 133.822 268.697 133.822C267.752 133.822 267.411 133.211 265.655 130.35M262.737 125.722C261.247 123.75 259.966 123 258.476 123C255.363 123 253 127.15 253 131.51C253 134.233 254.286 135.933 256.45 135.933C258.006 135.933 259.088 135.183 261.114 131.644C261.114 131.644 261.926 130.145 262.533 129.127C262.737 129.467 262.941 129.81 263.141 130.216L264.09 131.85C265.916 134.982 266.932 136 268.754 136C270.852 136 272 134.228 272 131.439C271.933 126.811 269.499 123 266.59 123C265.034 123 263.819 124.227 262.737 125.722Z" fill="white"/>
  <defs>
    <linearGradient id="paint0_linear_917_4801" x1="139" y1="205.5" x2="263.996" y2="205.5" gradientUnits="userSpaceOnUse">
      <stop stop-color="white" stop-opacity="0"/>
      <stop offset="0.48" stop-color="#8F9192"/>
      <stop offset="1" stop-color="#F5F5F5" stop-opacity="0"/>
    </linearGradient>
    <linearGradient id="paint1_linear_917_4801" x1="273" y1="55.9672" x2="322" y2="55.9672" gradientUnits="userSpaceOnUse">
      <stop stop-color="white" stop-opacity="0"/>
      <stop offset="0.48" stop-color="#8F9192"/>
      <stop offset="1" stop-color="#F5F5F5" stop-opacity="0"/>
    </linearGradient>
  </defs>
</svg>
