<svg width="400" height="240" viewBox="0 0 400 240" fill="none" xmlns="http://www.w3.org/2000/svg">
  <rect width="400" height="240" rx="10.5263" fill="white"/>
  <rect x="21.0527" y="165.791" width="65.2632" height="14.7368" rx="2.10526" fill="#FFB700"/>
  <rect x="88.4211" y="165.791" width="65.2632" height="14.7368" rx="2.10526" fill="#FFB700"/>
  <rect x="155.79" y="165.791" width="64.2105" height="14.7368" rx="2.10526" fill="#E6EAF4"/>
  <rect x="222.105" y="165.791" width="65.2632" height="14.7368" rx="2.10526" fill="#E6EAF4"/>
  <rect x="289.474" y="165.791" width="65.2632" height="14.7368" rx="2.10526" fill="#E6EAF4"/>
  <g clip-path="url(#clip0_917_6380)">
    <path d="M72.6549 86.8071L57.358 77.965C54.7307 76.4492 51.497 76.4492 48.8696 77.965L33.5728 86.8071C30.9454 88.3229 29.3159 91.1144 29.3159 94.1587V111.83C29.3159 114.862 30.9328 117.666 33.5601 119.182L48.857 128.011C51.4843 129.527 54.718 129.527 57.3454 128.011L72.6422 119.182C75.2696 117.666 76.8864 114.862 76.8864 111.83V94.1587C76.8864 91.1271 75.2696 88.3229 72.6422 86.8071H72.6549Z" fill="url(#paint0_linear_917_6380)"/>
    <path d="M53.1138 83.1439C53.4928 83.1439 53.8717 83.245 54.2001 83.4344L69.497 92.2639C70.1664 92.6555 70.5833 93.3755 70.5833 94.146V111.818C70.5833 112.588 70.1664 113.308 69.497 113.7L54.2001 122.529C53.8717 122.719 53.4928 122.82 53.1138 122.82C52.7349 122.82 52.3559 122.719 52.0275 122.529L36.7307 113.7C36.0612 113.308 35.6443 112.588 35.6443 111.818V94.146C35.6443 93.3755 36.0612 92.6555 36.7307 92.2639L52.0275 83.4344C52.3559 83.245 52.7349 83.1439 53.1138 83.1439ZM53.1138 76.8281C51.6486 76.8281 50.1833 77.2071 48.8696 77.965L33.5728 86.8071C30.9454 88.3229 29.3159 91.1144 29.3159 94.1587V111.83C29.3159 114.862 30.9328 117.666 33.5601 119.182L48.857 128.011C50.1707 128.769 51.6359 129.148 53.1012 129.148C54.5664 129.148 56.0317 128.769 57.3454 128.011L72.6422 119.182C75.2696 117.666 76.8864 114.862 76.8864 111.83V94.1587C76.8864 91.1271 75.2696 88.3229 72.6422 86.8071L57.358 77.965C56.0443 77.2071 54.5791 76.8281 53.1138 76.8281Z" fill="url(#paint1_linear_917_6380)"/>
    <path d="M70.0784 114.826L54.9584 123.555C54.4026 123.883 53.771 124.047 53.1394 124.047V129.1C54.6426 129.1 56.1457 128.708 57.4847 127.938L72.6047 119.209C73.9436 118.439 75.0299 117.327 75.7878 116.026L71.4173 113.5C71.1015 114.043 70.6468 114.511 70.091 114.839L70.0784 114.826Z" fill="url(#paint2_linear_917_6380)"/>
    <path d="M51.3071 123.567L36.1871 114.839C35.6313 114.511 35.1766 114.056 34.8608 113.5L30.4902 116.026C31.2355 117.327 32.3218 118.439 33.6734 119.209L48.7934 127.938C50.1323 128.708 51.6355 129.1 53.1387 129.1V124.047C52.5071 124.047 51.8755 123.883 51.3197 123.567H51.3071Z" fill="url(#paint3_linear_917_6380)"/>
    <path d="M76.9496 94.2085C76.9496 92.6549 76.5328 91.1643 75.7875 89.8633L71.417 92.3896C71.7328 92.9328 71.9096 93.5643 71.9096 94.2085V111.678C71.9096 112.322 71.7328 112.954 71.417 113.497L75.7875 116.023C76.5328 114.722 76.9496 113.232 76.9496 111.678V94.2085Z" fill="url(#paint4_linear_917_6380)"/>
    <path d="M36.1875 91.0647L51.3075 82.3363C51.8633 82.0079 52.4949 81.8563 53.1264 81.8563V76.791C51.6233 76.791 50.1201 77.1826 48.7812 77.9531L33.6612 86.6815C32.3222 87.4521 31.2359 88.5636 30.478 89.8647L34.8486 92.391C35.1643 91.8479 35.6191 91.3805 36.1749 91.0647H36.1875Z" fill="url(#paint5_linear_917_6380)"/>
    <path d="M34.3686 111.678V94.2085C34.3686 93.5643 34.5455 92.9328 34.8612 92.3896L30.4907 89.8633C29.7455 91.1643 29.3286 92.6549 29.3286 94.2085V111.678C29.3286 113.232 29.7455 114.722 30.4907 116.023L34.8612 113.497C34.5455 112.954 34.3686 112.322 34.3686 111.678Z" fill="url(#paint6_linear_917_6380)"/>
    <path d="M54.9449 82.3236L70.0649 91.0521C70.6207 91.3805 71.0755 91.8352 71.3912 92.3784L75.7618 89.8521C75.0165 88.551 73.9302 87.4394 72.5786 86.6689L57.4712 77.9531C56.1323 77.1826 54.6291 76.791 53.126 76.791V81.8436C53.7576 81.8436 54.3891 82.0079 54.9449 82.3236Z" fill="url(#paint7_linear_917_6380)"/>
    <path d="M52.1143 114.105V96.7558L48.1344 99.188V95.2671L52.1143 92.8791H55.7405V114.105H52.1143Z" fill="white"/>
  </g>
  <g clip-path="url(#clip1_917_6380)">
    <path d="M144.655 86.8071L129.358 77.965C126.731 76.4492 123.497 76.4492 120.87 77.965L105.573 86.8071C102.945 88.3229 101.316 91.1144 101.316 94.1587V111.83C101.316 114.862 102.933 117.666 105.56 119.182L120.857 128.011C123.484 129.527 126.718 129.527 129.345 128.011L144.642 119.182C147.27 117.666 148.886 114.862 148.886 111.83V94.1587C148.886 91.1271 147.27 88.3229 144.642 86.8071H144.655Z" fill="url(#paint8_linear_917_6380)"/>
    <path d="M125.114 83.1439C125.493 83.1439 125.872 83.245 126.2 83.4344L141.497 92.2639C142.166 92.6555 142.583 93.3755 142.583 94.146V111.818C142.583 112.588 142.166 113.308 141.497 113.7L126.2 122.529C125.872 122.719 125.493 122.82 125.114 122.82C124.735 122.82 124.356 122.719 124.027 122.529L108.731 113.7C108.061 113.308 107.644 112.588 107.644 111.818V94.146C107.644 93.3755 108.061 92.6555 108.731 92.2639L124.027 83.4344C124.356 83.245 124.735 83.1439 125.114 83.1439ZM125.114 76.8281C123.649 76.8281 122.183 77.2071 120.87 77.965L105.573 86.8071C102.945 88.3229 101.316 91.1144 101.316 94.1587V111.83C101.316 114.862 102.933 117.666 105.56 119.182L120.857 128.011C122.171 128.769 123.636 129.148 125.101 129.148C126.566 129.148 128.032 128.769 129.345 128.011L144.642 119.182C147.27 117.666 148.886 114.862 148.886 111.83V94.1587C148.886 91.1271 147.27 88.3229 144.642 86.8071L129.358 77.965C128.044 77.2071 126.579 76.8281 125.114 76.8281Z" fill="url(#paint9_linear_917_6380)"/>
    <path d="M142.078 114.824L126.958 123.553C126.403 123.881 125.771 124.045 125.139 124.045V129.098C126.643 129.098 128.146 128.706 129.485 127.936L144.605 119.208C145.944 118.437 147.03 117.325 147.788 116.024L143.417 113.498C143.102 114.041 142.647 114.509 142.091 114.837L142.078 114.824Z" fill="url(#paint10_linear_917_6380)"/>
    <path d="M123.307 123.565L108.187 114.837C107.631 114.509 107.177 114.054 106.861 113.498L102.49 116.024C103.235 117.325 104.322 118.437 105.673 119.208L120.793 127.936C122.132 128.706 123.635 129.098 125.139 129.098V124.045C124.507 124.045 123.875 123.881 123.32 123.565H123.307Z" fill="url(#paint11_linear_917_6380)"/>
    <path d="M148.95 94.2085C148.95 92.6549 148.533 91.1643 147.788 89.8633L143.417 92.3896C143.733 92.9328 143.91 93.5643 143.91 94.2085V111.678C143.91 112.322 143.733 112.954 143.417 113.497L147.788 116.023C148.533 114.722 148.95 113.232 148.95 111.678V94.2085Z" fill="url(#paint12_linear_917_6380)"/>
    <path d="M108.188 91.0627L123.308 82.3343C123.863 82.0059 124.495 81.8543 125.126 81.8543V76.7891C123.623 76.7891 122.12 77.1806 120.781 77.9512L105.661 86.6796C104.322 87.4501 103.236 88.5617 102.478 89.8627L106.849 92.3891C107.164 91.8459 107.619 91.3785 108.175 91.0627H108.188Z" fill="url(#paint13_linear_917_6380)"/>
    <path d="M106.368 111.678V94.2085C106.368 93.5643 106.545 92.9328 106.861 92.3896L102.49 89.8633C101.745 91.1643 101.328 92.6549 101.328 94.2085V111.678C101.328 113.232 101.745 114.722 102.49 116.023L106.861 113.497C106.545 112.954 106.368 112.322 106.368 111.678Z" fill="url(#paint14_linear_917_6380)"/>
    <path d="M126.945 82.3217L142.065 91.0501C142.621 91.3785 143.075 91.8333 143.391 92.3764L147.762 89.8501C147.017 88.5491 145.93 87.4375 144.579 86.667L129.471 77.9512C128.132 77.1806 126.629 76.7891 125.126 76.7891V81.8417C125.758 81.8417 126.389 82.0059 126.945 82.3217Z" fill="url(#paint15_linear_917_6380)"/>
    <path d="M117.522 114.076V110.98L126.602 102.888C127.31 102.259 127.801 101.664 128.076 101.104C128.351 100.544 128.489 100.004 128.489 99.4829C128.489 98.7753 128.337 98.1464 128.032 97.5961C127.727 97.0359 127.305 96.5937 126.764 96.2694C126.234 95.9451 125.619 95.783 124.922 95.783C124.185 95.783 123.531 95.9549 122.961 96.2989C122.401 96.633 121.964 97.0801 121.649 97.6403C121.335 98.2004 121.187 98.8048 121.207 99.4534H117.551C117.551 98.0383 117.866 96.805 118.495 95.7535C119.134 94.702 120.008 93.8864 121.119 93.3066C122.239 92.7268 123.531 92.4369 124.995 92.4369C126.352 92.4369 127.57 92.7415 128.651 93.3508C129.732 93.9502 130.582 94.7855 131.201 95.8567C131.82 96.918 132.13 98.1415 132.13 99.5271C132.13 100.539 131.992 101.389 131.717 102.077C131.442 102.765 131.029 103.399 130.479 103.979C129.938 104.559 129.265 105.202 128.459 105.91L122.018 111.614L121.694 110.73H132.13V114.076H117.522Z" fill="white"/>
  </g>
  <g clip-path="url(#clip2_917_6380)">
    <path d="M187.131 108.367C186.005 108.367 185.081 109.251 185.027 110.377L183.835 135.203C183.754 136.784 185.375 137.883 186.809 137.226L192.798 134.533V108.381H187.131V108.367Z" fill="url(#paint16_linear_917_6380)"/>
    <path d="M210.134 110.377C210.081 109.251 209.156 108.367 208.031 108.367H202.364V134.359L208.406 136.865C209.84 137.454 211.394 136.355 211.327 134.815L210.134 110.377Z" fill="url(#paint17_linear_917_6380)"/>
    <path d="M192.811 108.367V134.52L196.75 132.751C197.286 132.51 197.889 132.497 198.425 132.725L202.351 134.359V108.367H192.798H192.811Z" fill="url(#paint18_linear_917_6380)"/>
    <path d="M216.655 85.5434L201.358 76.7013C198.731 75.1855 195.497 75.1855 192.87 76.7013L177.573 85.5434C174.945 87.0592 173.316 89.8508 173.316 92.895V110.567C173.316 113.598 174.933 116.402 177.56 117.918L192.857 126.748C195.484 128.263 198.718 128.263 201.345 126.748L216.642 117.918C219.27 116.402 220.886 113.598 220.886 110.567V92.895C220.886 89.8634 219.27 87.0592 216.642 85.5434H216.655Z" fill="url(#paint19_linear_917_6380)"/>
    <path d="M197.114 81.8802C197.493 81.8802 197.872 81.9813 198.2 82.1708L213.497 91.0002C214.166 91.3918 214.583 92.1118 214.583 92.8823V110.554C214.583 111.324 214.166 112.044 213.497 112.436L198.2 121.266C197.872 121.455 197.493 121.556 197.114 121.556C196.735 121.556 196.356 121.455 196.027 121.266L180.731 112.436C180.061 112.044 179.644 111.324 179.644 110.554V92.8823C179.644 92.1118 180.061 91.3918 180.731 91.0002L196.027 82.1708C196.356 81.9813 196.735 81.8802 197.114 81.8802ZM197.114 75.5645C195.649 75.5645 194.183 75.9434 192.87 76.7013L177.573 85.5434C174.945 87.0592 173.316 89.8508 173.316 92.895V110.567C173.316 113.598 174.933 116.402 177.56 117.918L192.857 126.748C194.171 127.506 195.636 127.884 197.101 127.884C198.566 127.884 200.032 127.506 201.345 126.748L216.642 117.918C219.27 116.402 220.886 113.598 220.886 110.567V92.895C220.886 89.8634 219.27 87.0592 216.642 85.5434L201.358 76.7013C200.044 75.9434 198.579 75.5645 197.114 75.5645Z" fill="url(#paint20_linear_917_6380)"/>
    <path d="M214.078 113.561L198.958 122.289C198.403 122.618 197.771 122.782 197.139 122.782V127.834C198.643 127.834 200.146 127.443 201.485 126.672L216.605 117.944C217.944 117.173 219.03 116.062 219.788 114.761L215.417 112.234C215.102 112.778 214.647 113.245 214.091 113.573L214.078 113.561Z" fill="url(#paint21_linear_917_6380)"/>
    <path d="M195.307 122.302L180.187 113.573C179.631 113.245 179.177 112.79 178.861 112.234L174.49 114.761C175.235 116.062 176.322 117.173 177.673 117.944L192.793 126.672C194.132 127.443 195.635 127.834 197.139 127.834V122.782C196.507 122.782 195.875 122.618 195.32 122.302H195.307Z" fill="url(#paint22_linear_917_6380)"/>
    <path d="M220.95 92.9449C220.95 91.3912 220.533 89.9007 219.788 88.5996L215.417 91.1259C215.733 91.6691 215.91 92.3007 215.91 92.9449V110.414C215.91 111.059 215.733 111.69 215.417 112.233L219.788 114.76C220.533 113.459 220.95 111.968 220.95 110.414V92.9449Z" fill="url(#paint23_linear_917_6380)"/>
    <path d="M180.188 89.7991L195.308 81.0707C195.863 80.7422 196.495 80.5907 197.126 80.5907V75.5254C195.623 75.5254 194.12 75.917 192.781 76.6875L177.661 85.4159C176.322 86.1864 175.236 87.298 174.478 88.5991L178.849 91.1254C179.164 90.5822 179.619 90.1149 180.175 89.7991H180.188Z" fill="url(#paint24_linear_917_6380)"/>
    <path d="M178.368 110.414V92.9449C178.368 92.3007 178.545 91.6691 178.861 91.1259L174.49 88.5996C173.745 89.9007 173.328 91.3912 173.328 92.9449V110.414C173.328 111.968 173.745 113.459 174.49 114.76L178.861 112.233C178.545 111.69 178.368 111.059 178.368 110.414Z" fill="url(#paint25_linear_917_6380)"/>
    <path d="M198.945 81.058L214.065 89.7864C214.621 90.1149 215.075 90.5696 215.391 91.1128L219.762 88.5864C219.017 87.2854 217.93 86.1738 216.579 85.4033L201.471 76.6875C200.132 75.917 198.629 75.5254 197.126 75.5254V80.578C197.758 80.578 198.389 80.7422 198.945 81.058Z" fill="url(#paint26_linear_917_6380)"/>
    <path d="M196.401 113.345C195.339 113.345 194.337 113.139 193.394 112.726C192.45 112.313 191.63 111.729 190.932 110.972C190.244 110.215 189.748 109.321 189.443 108.289L192.878 107.361C193.123 108.206 193.57 108.859 194.219 109.321C194.877 109.773 195.6 109.994 196.386 109.984C197.084 109.984 197.708 109.822 198.258 109.498C198.808 109.174 199.241 108.736 199.555 108.186C199.87 107.626 200.027 107.002 200.027 106.314C200.027 105.263 199.688 104.383 199.01 103.675C198.332 102.968 197.457 102.614 196.386 102.614C196.062 102.614 195.742 102.658 195.428 102.747C195.123 102.835 194.828 102.958 194.543 103.115L192.922 100.315L200.056 94.212L200.366 95.067H190.269V91.7209H203.284V95.0817L197.55 100.595L197.521 99.5481C198.808 99.6366 199.904 99.9952 200.808 100.624C201.722 101.253 202.42 102.064 202.901 103.056C203.393 104.049 203.638 105.135 203.638 106.314C203.638 107.65 203.309 108.849 202.651 109.911C202.002 110.972 201.127 111.812 200.027 112.431C198.936 113.041 197.727 113.345 196.401 113.345Z" fill="white"/>
  </g>
  <g clip-path="url(#clip3_917_6380)">
    <path d="M259.131 108.367C258.005 108.367 257.081 109.251 257.027 110.377L255.835 135.203C255.754 136.784 257.375 137.883 258.809 137.226L264.798 134.533V108.381H259.131V108.367Z" fill="url(#paint27_linear_917_6380)"/>
    <path d="M282.134 110.377C282.081 109.251 281.156 108.367 280.031 108.367H274.364V134.359L280.406 136.865C281.84 137.454 283.394 136.355 283.327 134.815L282.134 110.377Z" fill="url(#paint28_linear_917_6380)"/>
    <path d="M264.811 108.367V134.52L268.75 132.751C269.286 132.51 269.889 132.497 270.425 132.725L274.351 134.359V108.367H264.798H264.811Z" fill="url(#paint29_linear_917_6380)"/>
    <path d="M288.655 85.5434L273.358 76.7013C270.731 75.1855 267.497 75.1855 264.87 76.7013L249.573 85.5434C246.945 87.0592 245.316 89.8508 245.316 92.895V110.567C245.316 113.598 246.933 116.402 249.56 117.918L264.857 126.748C267.484 128.263 270.718 128.263 273.345 126.748L288.642 117.918C291.27 116.402 292.886 113.598 292.886 110.567V92.895C292.886 89.8634 291.27 87.0592 288.642 85.5434H288.655Z" fill="url(#paint30_linear_917_6380)"/>
    <path d="M269.114 81.8802C269.493 81.8802 269.872 81.9813 270.2 82.1708L285.497 91.0002C286.166 91.3918 286.583 92.1118 286.583 92.8823V110.554C286.583 111.324 286.166 112.044 285.497 112.436L270.2 121.266C269.872 121.455 269.493 121.556 269.114 121.556C268.735 121.556 268.356 121.455 268.027 121.266L252.731 112.436C252.061 112.044 251.644 111.324 251.644 110.554V92.8823C251.644 92.1118 252.061 91.3918 252.731 91.0002L268.027 82.1708C268.356 81.9813 268.735 81.8802 269.114 81.8802ZM269.114 75.5645C267.649 75.5645 266.183 75.9434 264.87 76.7013L249.573 85.5434C246.945 87.0592 245.316 89.8508 245.316 92.895V110.567C245.316 113.598 246.933 116.402 249.56 117.918L264.857 126.748C266.171 127.506 267.636 127.884 269.101 127.884C270.566 127.884 272.032 127.506 273.345 126.748L288.642 117.918C291.27 116.402 292.886 113.598 292.886 110.567V92.895C292.886 89.8634 291.27 87.0592 288.642 85.5434L273.358 76.7013C272.044 75.9434 270.579 75.5645 269.114 75.5645Z" fill="url(#paint31_linear_917_6380)"/>
    <path d="M286.078 113.561L270.958 122.289C270.403 122.618 269.771 122.782 269.139 122.782V127.834C270.643 127.834 272.146 127.443 273.485 126.672L288.605 117.944C289.944 117.173 291.03 116.062 291.788 114.761L287.417 112.234C287.102 112.778 286.647 113.245 286.091 113.573L286.078 113.561Z" fill="url(#paint32_linear_917_6380)"/>
    <path d="M267.307 122.302L252.187 113.573C251.631 113.245 251.177 112.79 250.861 112.234L246.49 114.761C247.235 116.062 248.322 117.173 249.673 117.944L264.793 126.672C266.132 127.443 267.635 127.834 269.139 127.834V122.782C268.507 122.782 267.875 122.618 267.32 122.302H267.307Z" fill="url(#paint33_linear_917_6380)"/>
    <path d="M292.95 92.9449C292.95 91.3912 292.533 89.9007 291.788 88.5996L287.417 91.1259C287.733 91.6691 287.91 92.3007 287.91 92.9449V110.414C287.91 111.059 287.733 111.69 287.417 112.233L291.788 114.76C292.533 113.459 292.95 111.968 292.95 110.414V92.9449Z" fill="url(#paint34_linear_917_6380)"/>
    <path d="M252.188 89.7991L267.308 81.0707C267.863 80.7422 268.495 80.5907 269.126 80.5907V75.5254C267.623 75.5254 266.12 75.917 264.781 76.6875L249.661 85.4159C248.322 86.1864 247.236 87.298 246.478 88.5991L250.849 91.1254C251.164 90.5822 251.619 90.1149 252.175 89.7991H252.188Z" fill="url(#paint35_linear_917_6380)"/>
    <path d="M250.368 110.414V92.9449C250.368 92.3007 250.545 91.6691 250.861 91.1259L246.49 88.5996C245.745 89.9007 245.328 91.3912 245.328 92.9449V110.414C245.328 111.968 245.745 113.459 246.49 114.76L250.861 112.233C250.545 111.69 250.368 111.059 250.368 110.414Z" fill="url(#paint36_linear_917_6380)"/>
    <path d="M270.945 81.058L286.065 89.7864C286.621 90.1149 287.075 90.5696 287.391 91.1128L291.762 88.5864C291.017 87.2854 289.93 86.1738 288.579 85.4033L273.471 76.6875C272.132 75.917 270.629 75.5254 269.126 75.5254V80.578C269.758 80.578 270.389 80.7422 270.945 81.058Z" fill="url(#paint37_linear_917_6380)"/>
    <path d="M270.739 112.947V109.439H261.335V106.122L268.13 91.7209H272.184L265.388 106.122H270.739V100.595H274.336V106.122H276.326V109.439H274.336V112.947H270.739Z" fill="white"/>
  </g>
  <g clip-path="url(#clip4_917_6380)">
    <path d="M321.813 134.98L329.404 108.391C329.733 107.241 331.097 106.736 332.095 107.405L336.529 110.361L331.716 135.132L323.96 137.178C322.634 137.532 321.434 136.294 321.813 134.98Z" fill="url(#paint38_linear_917_6380)"/>
    <path d="M340.091 112.749C340.66 113.128 340.95 113.785 340.862 114.467L338.437 132.252C338.336 132.959 337.83 133.54 337.136 133.73L331.717 135.157L336.529 110.387L340.091 112.761V112.749Z" fill="url(#paint39_linear_917_6380)"/>
    <path d="M361.779 134.755L354.187 108.166C353.859 107.016 352.495 106.511 351.497 107.181L347.063 110.136L351.876 134.907L359.631 136.953C360.958 137.307 362.158 136.069 361.779 134.755Z" fill="url(#paint40_linear_917_6380)"/>
    <path d="M343.501 112.524C342.932 112.903 342.642 113.56 342.73 114.242L345.156 132.027C345.257 132.735 345.762 133.316 346.457 133.505L351.876 134.933L347.063 110.162L343.501 112.537V112.524Z" fill="url(#paint41_linear_917_6380)"/>
    <path d="M360.655 85.5434L345.358 76.7013C342.731 75.1855 339.497 75.1855 336.87 76.7013L321.573 85.5434C318.945 87.0592 317.316 89.8508 317.316 92.895V110.567C317.316 113.598 318.933 116.402 321.56 117.918L336.857 126.748C339.484 128.263 342.718 128.263 345.345 126.748L360.642 117.918C363.27 116.402 364.886 113.598 364.886 110.567V92.895C364.886 89.8634 363.27 87.0592 360.642 85.5434H360.655Z" fill="url(#paint42_linear_917_6380)"/>
    <path d="M341.114 81.8802C341.493 81.8802 341.872 81.9813 342.2 82.1708L357.497 91.0002C358.166 91.3918 358.583 92.1118 358.583 92.8823V110.554C358.583 111.324 358.166 112.044 357.497 112.436L342.2 121.266C341.872 121.455 341.493 121.556 341.114 121.556C340.735 121.556 340.356 121.455 340.027 121.266L324.731 112.436C324.061 112.044 323.644 111.324 323.644 110.554V92.8823C323.644 92.1118 324.061 91.3918 324.731 91.0002L340.027 82.1708C340.356 81.9813 340.735 81.8802 341.114 81.8802ZM341.114 75.5645C339.649 75.5645 338.183 75.9434 336.87 76.7013L321.573 85.5434C318.945 87.0592 317.316 89.8508 317.316 92.895V110.567C317.316 113.598 318.933 116.402 321.56 117.918L336.857 126.748C338.171 127.506 339.636 127.884 341.101 127.884C342.566 127.884 344.032 127.506 345.345 126.748L360.642 117.918C363.27 116.402 364.886 113.598 364.886 110.567V92.895C364.886 89.8634 363.27 87.0592 360.642 85.5434L345.358 76.7013C344.044 75.9434 342.579 75.5645 341.114 75.5645Z" fill="url(#paint43_linear_917_6380)"/>
    <path d="M358.078 113.561L342.958 122.289C342.403 122.618 341.771 122.782 341.139 122.782V127.834C342.643 127.834 344.146 127.443 345.485 126.672L360.605 117.944C361.944 117.173 363.03 116.062 363.788 114.761L359.417 112.234C359.102 112.778 358.647 113.245 358.091 113.573L358.078 113.561Z" fill="url(#paint44_linear_917_6380)"/>
    <path d="M339.307 122.302L324.187 113.573C323.631 113.245 323.177 112.79 322.861 112.234L318.49 114.761C319.235 116.062 320.322 117.173 321.673 117.944L336.793 126.672C338.132 127.443 339.635 127.834 341.139 127.834V122.782C340.507 122.782 339.875 122.618 339.32 122.302H339.307Z" fill="url(#paint45_linear_917_6380)"/>
    <path d="M364.95 92.9449C364.95 91.3912 364.533 89.9007 363.788 88.5996L359.417 91.1259C359.733 91.6691 359.91 92.3007 359.91 92.9449V110.414C359.91 111.059 359.733 111.69 359.417 112.233L363.788 114.76C364.533 113.459 364.95 111.968 364.95 110.414V92.9449Z" fill="url(#paint46_linear_917_6380)"/>
    <path d="M324.188 89.7991L339.308 81.0707C339.863 80.7422 340.495 80.5907 341.126 80.5907V75.5254C339.623 75.5254 338.12 75.917 336.781 76.6875L321.661 85.4159C320.322 86.1864 319.236 87.298 318.478 88.5991L322.849 91.1254C323.164 90.5822 323.619 90.1149 324.175 89.7991H324.188Z" fill="url(#paint47_linear_917_6380)"/>
    <path d="M322.368 110.414V92.9449C322.368 92.3007 322.545 91.6691 322.861 91.1259L318.49 88.5996C317.745 89.9007 317.328 91.3912 317.328 92.9449V110.414C317.328 111.968 317.745 113.459 318.49 114.76L322.861 112.233C322.545 111.69 322.368 111.059 322.368 110.414Z" fill="url(#paint48_linear_917_6380)"/>
    <path d="M342.945 81.058L358.065 89.7864C358.621 90.1149 359.075 90.5696 359.391 91.1128L363.762 88.5864C363.017 87.2854 361.93 86.1738 360.579 85.4033L345.471 76.6875C344.132 75.917 342.629 75.5254 341.126 75.5254V80.578C341.758 80.578 342.389 80.7422 342.945 81.058Z" fill="url(#paint49_linear_917_6380)"/>
    <path d="M340.55 113.284C339.469 113.284 338.462 113.063 337.528 112.621C336.594 112.169 335.789 111.55 335.11 110.763C334.442 109.977 333.961 109.063 333.666 108.022L337.086 107.108C337.223 107.678 337.474 108.169 337.837 108.582C338.211 108.995 338.643 109.314 339.135 109.54C339.636 109.766 340.152 109.879 340.682 109.879C341.37 109.879 341.999 109.712 342.569 109.378C343.139 109.044 343.591 108.597 343.925 108.036C344.259 107.466 344.427 106.837 344.427 106.15C344.427 105.462 344.255 104.838 343.911 104.278C343.576 103.708 343.124 103.26 342.554 102.936C341.984 102.602 341.36 102.435 340.682 102.435C339.867 102.435 339.189 102.582 338.648 102.877C338.118 103.172 337.71 103.486 337.425 103.821L334.388 102.848L335.037 91.6154H346.564V94.9468H336.938L338.265 93.6938L337.793 101.506L337.145 100.71C337.695 100.209 338.334 99.8357 339.061 99.59C339.788 99.3444 340.491 99.2215 341.169 99.2215C342.495 99.2215 343.67 99.5262 344.692 100.135C345.724 100.735 346.529 101.555 347.109 102.597C347.699 103.639 347.994 104.823 347.994 106.15C347.994 107.476 347.65 108.68 346.962 109.761C346.274 110.832 345.365 111.687 344.235 112.326C343.115 112.965 341.886 113.284 340.55 113.284Z" fill="white"/>
  </g>
  <path d="M361.84 177V168.36H367.42V169.716H363.286V171.846H366.7V173.202H363.286V175.644H367.42V177H361.84ZM368.14 177L371.068 172.632L368.224 168.36H369.994L371.962 171.402L373.912 168.36H375.694L372.85 172.632L375.766 177H373.996L371.962 173.862L369.922 177H368.14ZM376.723 177V168.36H380.293C380.377 168.36 380.485 168.364 380.617 168.372C380.749 168.376 380.871 168.388 380.983 168.408C381.483 168.484 381.895 168.65 382.219 168.906C382.547 169.162 382.789 169.486 382.945 169.878C383.105 170.266 383.185 170.698 383.185 171.174C383.185 171.646 383.105 172.078 382.945 172.47C382.785 172.858 382.541 173.18 382.213 173.436C381.889 173.692 381.479 173.858 380.983 173.934C380.871 173.95 380.747 173.962 380.611 173.97C380.479 173.978 380.373 173.982 380.293 173.982H378.169V177H376.723ZM378.169 172.632H380.233C380.313 172.632 380.403 172.628 380.503 172.62C380.603 172.612 380.695 172.596 380.779 172.572C381.019 172.512 381.207 172.406 381.343 172.254C381.483 172.102 381.581 171.93 381.637 171.738C381.697 171.546 381.727 171.358 381.727 171.174C381.727 170.99 381.697 170.802 381.637 170.61C381.581 170.414 381.483 170.24 381.343 170.088C381.207 169.936 381.019 169.83 380.779 169.77C380.695 169.746 380.603 169.732 380.503 169.728C380.403 169.72 380.313 169.716 380.233 169.716H378.169V172.632Z" fill="#C9CFDE"/>
  <defs>
    <linearGradient id="paint0_linear_917_6380" x1="34.089" y1="86.7723" x2="72.1386" y2="119.204" gradientUnits="userSpaceOnUse">
      <stop offset="0.365" stop-color="#FF9E16"/>
      <stop offset="1" stop-color="#FFDA7D"/>
    </linearGradient>
    <linearGradient id="paint1_linear_917_6380" x1="29.3159" y1="102.988" x2="76.8991" y2="102.988" gradientUnits="userSpaceOnUse">
      <stop stop-color="#AE6C00"/>
      <stop offset="1" stop-color="#FF9100"/>
    </linearGradient>
    <linearGradient id="paint2_linear_917_6380" x1="58.3537" y1="119.432" x2="72.4389" y2="126.135" gradientUnits="userSpaceOnUse">
      <stop stop-color="#FFB700"/>
      <stop offset="1" stop-color="#E87F07"/>
    </linearGradient>
    <linearGradient id="paint3_linear_917_6380" x1="31.2849" y1="114.627" x2="53.9401" y2="127.707" gradientUnits="userSpaceOnUse">
      <stop stop-color="#FFE6B4"/>
      <stop offset="1" stop-color="#FFB84F"/>
    </linearGradient>
    <linearGradient id="paint4_linear_917_6380" x1="67.9337" y1="98.4145" x2="81.4437" y2="106.215" gradientUnits="userSpaceOnUse">
      <stop offset="0.52" stop-color="#FFCA74"/>
      <stop offset="1" stop-color="#FF9E16"/>
    </linearGradient>
    <linearGradient id="paint5_linear_917_6380" x1="39.6451" y1="78.4954" x2="46.029" y2="92.7266" gradientUnits="userSpaceOnUse">
      <stop offset="0.3" stop-color="#FFEECE"/>
      <stop offset="0.88" stop-color="#FFCB75"/>
    </linearGradient>
    <linearGradient id="paint6_linear_917_6380" x1="28.0026" y1="97.4721" x2="36.8996" y2="110.281" gradientUnits="userSpaceOnUse">
      <stop stop-color="#FFCA75"/>
      <stop offset="1" stop-color="#FFF5E1"/>
    </linearGradient>
    <linearGradient id="paint7_linear_917_6380" x1="52.329" y1="78.1758" x2="74.9843" y2="91.2558" gradientUnits="userSpaceOnUse">
      <stop stop-color="#FF9E16"/>
      <stop offset="1" stop-color="#FFF1CF"/>
    </linearGradient>
    <linearGradient id="paint8_linear_917_6380" x1="107" y1="76.7902" x2="138.579" y2="128.58" gradientUnits="userSpaceOnUse">
      <stop stop-color="#FF3C00"/>
      <stop offset="1" stop-color="#FFAA00"/>
    </linearGradient>
    <linearGradient id="paint9_linear_917_6380" x1="101.316" y1="102.988" x2="148.899" y2="102.988" gradientUnits="userSpaceOnUse">
      <stop stop-color="#B13902"/>
      <stop offset="1" stop-color="#DC6F08"/>
    </linearGradient>
    <linearGradient id="paint10_linear_917_6380" x1="129.685" y1="121.564" x2="145.104" y2="124.006" gradientUnits="userSpaceOnUse">
      <stop stop-color="#FF9101"/>
      <stop offset="1" stop-color="#FF7B01"/>
    </linearGradient>
    <linearGradient id="paint11_linear_917_6380" x1="103.289" y1="114.632" x2="125.944" y2="127.712" gradientUnits="userSpaceOnUse">
      <stop stop-color="#FFD8A5"/>
      <stop offset="1" stop-color="#FF6B01"/>
    </linearGradient>
    <linearGradient id="paint12_linear_917_6380" x1="139.944" y1="98.4104" x2="153.454" y2="106.21" gradientUnits="userSpaceOnUse">
      <stop stop-color="#FFD9AB"/>
      <stop offset="1" stop-color="#FF9001"/>
    </linearGradient>
    <linearGradient id="paint13_linear_917_6380" x1="111.638" y1="78.494" x2="118.033" y2="92.7315" gradientUnits="userSpaceOnUse">
      <stop offset="0.3" stop-color="#FEDFCD"/>
      <stop offset="0.88" stop-color="#FF8601"/>
    </linearGradient>
    <linearGradient id="paint14_linear_917_6380" x1="99.9954" y1="97.4727" x2="108.903" y2="110.288" gradientUnits="userSpaceOnUse">
      <stop stop-color="#FFA248"/>
      <stop offset="1" stop-color="#FFEEE0"/>
    </linearGradient>
    <linearGradient id="paint15_linear_917_6380" x1="124.333" y1="78.1807" x2="146.988" y2="91.2607" gradientUnits="userSpaceOnUse">
      <stop stop-color="#FF7E01"/>
      <stop offset="1" stop-color="#FFEAD3"/>
    </linearGradient>
    <linearGradient id="paint16_linear_917_6380" x1="195.893" y1="110.149" x2="181.45" y2="135.15" gradientUnits="userSpaceOnUse">
      <stop stop-color="#FFA201"/>
      <stop offset="1" stop-color="#FF5900"/>
    </linearGradient>
    <linearGradient id="paint17_linear_917_6380" x1="199.309" y1="110.122" x2="213.578" y2="134.842" gradientUnits="userSpaceOnUse">
      <stop stop-color="#FFA201"/>
      <stop offset="1" stop-color="#FF5900"/>
    </linearGradient>
    <linearGradient id="paint18_linear_917_6380" x1="197.581" y1="108.367" x2="197.581" y2="134.533" gradientUnits="userSpaceOnUse">
      <stop stop-color="#F8E6E6"/>
      <stop offset="1" stop-color="#FEDEC8"/>
    </linearGradient>
    <linearGradient id="paint19_linear_917_6380" x1="179" y1="75.5265" x2="210.579" y2="127.316" gradientUnits="userSpaceOnUse">
      <stop stop-color="#EA2F13"/>
      <stop offset="1" stop-color="#FF6A00"/>
    </linearGradient>
    <linearGradient id="paint20_linear_917_6380" x1="173.316" y1="101.724" x2="220.899" y2="101.724" gradientUnits="userSpaceOnUse">
      <stop stop-color="#76260B"/>
      <stop offset="1" stop-color="#B13902"/>
    </linearGradient>
    <linearGradient id="paint21_linear_917_6380" x1="201.685" y1="120.301" x2="217.104" y2="122.743" gradientUnits="userSpaceOnUse">
      <stop stop-color="#FFA26C"/>
      <stop offset="1" stop-color="#F85607"/>
    </linearGradient>
    <linearGradient id="paint22_linear_917_6380" x1="175.289" y1="113.368" x2="197.944" y2="126.448" gradientUnits="userSpaceOnUse">
      <stop stop-color="#FFE3CA"/>
      <stop offset="1" stop-color="#FF894C"/>
    </linearGradient>
    <linearGradient id="paint23_linear_917_6380" x1="211.944" y1="97.1467" x2="225.454" y2="104.947" gradientUnits="userSpaceOnUse">
      <stop stop-color="#FFC7AB"/>
      <stop offset="1" stop-color="#FE8C4F"/>
    </linearGradient>
    <linearGradient id="paint24_linear_917_6380" x1="183.638" y1="77.2303" x2="190.033" y2="91.4678" gradientUnits="userSpaceOnUse">
      <stop offset="0.3" stop-color="#FEDFCD"/>
      <stop offset="0.88" stop-color="#FFA685"/>
    </linearGradient>
    <linearGradient id="paint25_linear_917_6380" x1="171.995" y1="96.209" x2="180.903" y2="109.024" gradientUnits="userSpaceOnUse">
      <stop stop-color="#FF9C62"/>
      <stop offset="1" stop-color="#FFEEE0"/>
    </linearGradient>
    <linearGradient id="paint26_linear_917_6380" x1="196.333" y1="76.9171" x2="218.988" y2="89.9971" gradientUnits="userSpaceOnUse">
      <stop stop-color="#FF9F6C"/>
      <stop offset="1" stop-color="#FFEAD3"/>
    </linearGradient>
    <linearGradient id="paint27_linear_917_6380" x1="267.893" y1="110.149" x2="253.45" y2="135.15" gradientUnits="userSpaceOnUse">
      <stop stop-color="#EA3565"/>
      <stop offset="1" stop-color="#E52D16"/>
    </linearGradient>
    <linearGradient id="paint28_linear_917_6380" x1="271.309" y1="110.122" x2="285.578" y2="134.842" gradientUnits="userSpaceOnUse">
      <stop stop-color="#EA3565"/>
      <stop offset="1" stop-color="#DD281E"/>
    </linearGradient>
    <linearGradient id="paint29_linear_917_6380" x1="269.581" y1="108.367" x2="269.581" y2="134.533" gradientUnits="userSpaceOnUse">
      <stop stop-color="#F8E6E6"/>
      <stop offset="1" stop-color="#FEC8C8"/>
    </linearGradient>
    <linearGradient id="paint30_linear_917_6380" x1="251" y1="75.5265" x2="282.579" y2="127.316" gradientUnits="userSpaceOnUse">
      <stop stop-color="#990057"/>
      <stop offset="1" stop-color="#FF3C00"/>
    </linearGradient>
    <linearGradient id="paint31_linear_917_6380" x1="245.316" y1="101.724" x2="292.899" y2="101.724" gradientUnits="userSpaceOnUse">
      <stop stop-color="#650E0E"/>
      <stop offset="1" stop-color="#B10F02"/>
    </linearGradient>
    <linearGradient id="paint32_linear_917_6380" x1="273.685" y1="120.301" x2="289.104" y2="122.743" gradientUnits="userSpaceOnUse">
      <stop stop-color="#F6A7A7"/>
      <stop offset="1" stop-color="#E46B6B"/>
    </linearGradient>
    <linearGradient id="paint33_linear_917_6380" x1="247.289" y1="113.368" x2="269.944" y2="126.448" gradientUnits="userSpaceOnUse">
      <stop stop-color="#FFAFAF"/>
      <stop offset="1" stop-color="#FB8B8A"/>
    </linearGradient>
    <linearGradient id="paint34_linear_917_6380" x1="283.944" y1="97.1467" x2="297.454" y2="104.947" gradientUnits="userSpaceOnUse">
      <stop stop-color="#FFBABA"/>
      <stop offset="1" stop-color="#FA8383"/>
    </linearGradient>
    <linearGradient id="paint35_linear_917_6380" x1="255.638" y1="77.2303" x2="262.033" y2="91.4678" gradientUnits="userSpaceOnUse">
      <stop offset="0.3" stop-color="#FECDCD"/>
      <stop offset="0.88" stop-color="#F39494"/>
    </linearGradient>
    <linearGradient id="paint36_linear_917_6380" x1="243.995" y1="96.209" x2="252.903" y2="109.024" gradientUnits="userSpaceOnUse">
      <stop stop-color="#F19A9A"/>
      <stop offset="1" stop-color="#FECCCC"/>
    </linearGradient>
    <linearGradient id="paint37_linear_917_6380" x1="268.333" y1="76.9171" x2="290.988" y2="89.9971" gradientUnits="userSpaceOnUse">
      <stop stop-color="#EC8989"/>
      <stop offset="1" stop-color="#FFD3D3"/>
    </linearGradient>
    <linearGradient id="paint38_linear_917_6380" x1="330.238" y1="120.656" x2="325.527" y2="140.247" gradientUnits="userSpaceOnUse">
      <stop stop-color="#674AE4"/>
      <stop offset="1" stop-color="#881AA8"/>
    </linearGradient>
    <linearGradient id="paint39_linear_917_6380" x1="338.639" y1="120.719" x2="331.426" y2="126.366" gradientUnits="userSpaceOnUse">
      <stop stop-color="#E9E6F8"/>
      <stop offset="1" stop-color="#C8A5FF"/>
    </linearGradient>
    <linearGradient id="paint40_linear_917_6380" x1="353.354" y1="120.431" x2="358.065" y2="140.023" gradientUnits="userSpaceOnUse">
      <stop stop-color="#674AE4"/>
      <stop offset="1" stop-color="#811BA5"/>
    </linearGradient>
    <linearGradient id="paint41_linear_917_6380" x1="344.953" y1="120.495" x2="352.166" y2="126.141" gradientUnits="userSpaceOnUse">
      <stop stop-color="#E9E6F8"/>
      <stop offset="1" stop-color="#C8A5FF"/>
    </linearGradient>
    <linearGradient id="paint42_linear_917_6380" x1="356.537" y1="118.411" x2="324.251" y2="83.4718" gradientUnits="userSpaceOnUse">
      <stop stop-color="#8F14A3"/>
      <stop offset="0.38" stop-color="#7924B3"/>
      <stop offset="1" stop-color="#5A3DCD"/>
    </linearGradient>
    <linearGradient id="paint43_linear_917_6380" x1="317.316" y1="101.724" x2="364.899" y2="101.724" gradientUnits="userSpaceOnUse">
      <stop stop-color="#5E19A9"/>
      <stop offset="0.33" stop-color="#5C20AD"/>
      <stop offset="0.84" stop-color="#5736B9"/>
      <stop offset="1" stop-color="#563FBE"/>
    </linearGradient>
    <linearGradient id="paint44_linear_917_6380" x1="346.352" y1="118.167" x2="360.437" y2="124.87" gradientUnits="userSpaceOnUse">
      <stop stop-color="#7F69D8"/>
      <stop offset="1" stop-color="#442DB3"/>
    </linearGradient>
    <linearGradient id="paint45_linear_917_6380" x1="319.294" y1="113.368" x2="341.939" y2="126.442" gradientUnits="userSpaceOnUse">
      <stop stop-color="#A28DEE"/>
      <stop offset="1" stop-color="#8872DD"/>
    </linearGradient>
    <linearGradient id="paint46_linear_917_6380" x1="355.932" y1="97.1511" x2="369.442" y2="104.951" gradientUnits="userSpaceOnUse">
      <stop offset="0.52" stop-color="#A28DEE"/>
      <stop offset="1" stop-color="#806BD9"/>
    </linearGradient>
    <linearGradient id="paint47_linear_917_6380" x1="327.643" y1="77.23" x2="334.027" y2="91.4612" gradientUnits="userSpaceOnUse">
      <stop offset="0.3" stop-color="#BAA6FD"/>
      <stop offset="0.88" stop-color="#A28DEE"/>
    </linearGradient>
    <linearGradient id="paint48_linear_917_6380" x1="316.001" y1="96.2087" x2="324.898" y2="109.017" gradientUnits="userSpaceOnUse">
      <stop stop-color="#7761D3"/>
      <stop offset="1" stop-color="#B39FF8"/>
    </linearGradient>
    <linearGradient id="paint49_linear_917_6380" x1="340.338" y1="76.9168" x2="362.983" y2="89.9904" gradientUnits="userSpaceOnUse">
      <stop stop-color="#705ACF"/>
      <stop offset="1" stop-color="#BEAAFF"/>
    </linearGradient>
    <clipPath id="clip0_917_6380">
      <rect width="48" height="75.7895" fill="white" transform="translate(29.3159 64.1582)"/>
    </clipPath>
    <clipPath id="clip1_917_6380">
      <rect width="48" height="75.7895" fill="white" transform="translate(101.316 64.1582)"/>
    </clipPath>
    <clipPath id="clip2_917_6380">
      <rect width="48" height="75.7895" fill="white" transform="translate(173.316 62.8945)"/>
    </clipPath>
    <clipPath id="clip3_917_6380">
      <rect width="48" height="75.7895" fill="white" transform="translate(245.316 62.8945)"/>
    </clipPath>
    <clipPath id="clip4_917_6380">
      <rect width="48" height="75.7895" fill="white" transform="translate(317.316 62.8945)"/>
    </clipPath>
  </defs>
</svg>
