<svg width="400" height="240" viewBox="0 0 400 240" fill="none" xmlns="http://www.w3.org/2000/svg">
  <rect width="400" height="240" rx="10.5263" fill="white"/>
  <g clip-path="url(#clip0_1007_3160)">
    <path d="M159.995 74.845C148.535 74.6338 137.09 74.3342 125.67 73.9462C121.045 73.789 117.215 77.4385 117.215 81.9819V124.994C117.215 129.484 120.955 133.104 125.52 133.035C136.665 132.863 148.185 132.735 159.915 132.642C164.41 132.608 168.035 129.017 168.035 124.602V82.8807C168.035 78.4945 164.455 74.9236 159.99 74.845H159.995Z" fill="#E9ECF5"/>
    <g clip-path="url(#clip1_1007_3160)">
      <path d="M161 85.0188C149.01 85.0188 137.021 85.0188 125.019 85.0188C125.019 97.0161 125.019 109.008 125.019 121C125.013 120.997 125.001 120.994 125.001 120.991C124.999 120.966 125 120.941 125 120.916V85C136.972 85 148.944 85 160.916 85.0008C160.944 85.0008 160.972 85.0126 161 85.0188Z" fill="white"/>
    </g>
    <path d="M62.9622 134.999C73.5871 134.624 85.2095 134.293 97.5603 134.021C102.253 133.918 106 130.334 106 125.946V80.9136C106 76.5994 102.374 73.0553 97.7661 72.843C86.2176 72.3198 74.6849 71.7077 63.1786 71.0166C58.2067 70.7205 54 74.4176 54 79.0773V126.923C54 131.509 58.0694 135.172 62.9675 134.994L62.9622 134.999Z" fill="#E9ECF5"/>
    <path d="M233.805 132.587C246.045 132.666 258.115 132.784 269.82 132.946C274.385 133.01 278.12 129.395 278.12 124.905V82.1037C278.12 77.5554 274.285 73.9207 269.655 74.068C257.66 74.4512 245.685 74.7361 233.735 74.9276C229.265 75.0013 225.67 78.5722 225.67 82.9633V124.542C225.67 128.962 229.305 132.553 233.805 132.582V132.587Z" fill="#EDF0F8"/>
    <g clip-path="url(#clip2_1007_3160)">
      <path d="M264 103.527C260.497 103.742 257.194 105.23 254.712 107.712C252.23 110.194 250.742 113.497 250.527 117H250.473C250.258 113.497 248.77 110.193 246.288 107.712C243.807 105.23 240.503 103.742 237 103.527V103.473C240.503 103.258 243.807 101.77 246.288 99.2883C248.77 96.8067 250.258 93.5031 250.473 90H250.527C250.742 93.5029 252.23 96.8063 254.712 99.2879C257.194 101.77 260.497 103.258 264 103.473V103.527Z" fill="white"/>
    </g>
    <path d="M335.91 71.0129C323.725 71.7546 311.56 72.398 299.415 72.9482C295.04 73.1446 291.595 76.6762 291.595 80.9789V125.902C291.595 130.274 295.155 133.845 299.6 133.938C312.64 134.218 324.925 134.562 336.135 134.964C340.77 135.131 344.615 131.487 344.615 126.929V79.0388C344.615 74.3971 340.625 70.728 335.91 71.0178V71.0129Z" fill="#EDF0F8"/>
    <path d="M306.971 107.356C306.971 102.809 309.25 98.0556 311.918 98.0556C313.397 98.0556 314.585 98.9407 316.465 101.62C314.682 104.385 313.591 106.07 313.591 106.07C311.215 109.829 310.426 110.617 309.141 110.617C307.856 110.714 306.971 109.526 306.971 107.356ZM322.503 105.682L320.818 102.918C320.418 102.227 319.933 101.536 319.533 100.941C321.012 98.6618 322.2 97.4736 323.692 97.4736C326.662 97.4736 329.039 101.924 329.039 107.465C329.039 109.538 328.348 110.727 326.965 110.727C325.583 110.727 325.086 109.841 322.515 105.682M318.247 98.9529C316.077 96.0791 314.185 95 312.015 95C307.468 95 304 101.038 304 107.368C304 111.321 305.879 113.794 309.044 113.794C311.324 113.794 312.9 112.703 315.871 107.562C315.871 107.562 317.059 105.391 317.944 103.9C318.235 104.397 318.538 104.894 318.829 105.488L320.212 107.865C322.879 112.412 324.371 113.903 327.038 113.903C330.106 113.903 331.791 111.333 331.791 107.271C331.694 100.541 328.129 95 323.873 95C321.594 95 319.811 96.7824 318.235 98.9529" fill="white"/>
    <path d="M361.145 76.8187V127.995C361.145 132.234 364.505 135.745 368.81 136.016C377.9 136.585 385.34 137.224 390.735 137.926C395.64 138.57 399.995 134.822 399.995 129.959V75.0406C399.995 70.3351 395.9 66.6316 391.125 67.0295C383.65 67.6582 376.18 68.2476 368.72 68.8027C364.445 69.1219 361.14 72.6093 361.14 76.8187H361.145Z" fill="url(#paint0_linear_1007_3160)"/>
    <path d="M387.146 94H383.931L389.784 110L393 110L387.146 94ZM377.854 94L372 110H375.281L376.463 106.64L382.605 106.64L383.799 110H387.081L381.214 94H377.854ZM377.539 103.667L379.534 98.0402L381.542 103.667H377.539Z" fill="white"/>
    <path d="M29.7966 68.5668C23.0827 68.0798 16.3688 67.5683 9.66581 67.0321C4.46867 66.614 0 70.3327 0 75.0499V129.949C0 134.829 4.75136 138.572 10.1007 137.928C15.0913 137.328 21.7182 136.777 29.7096 136.275C34.3794 135.98 38 132.478 38 128.242V76.5895C38 72.3888 34.4283 68.9013 29.7966 68.5668Z" fill="url(#paint1_linear_1007_3160)"/>
    <g clip-path="url(#clip3_1007_3160)">
      <path d="M23.7782 103.177C26.8105 106.206 26.6643 111.06 23.7952 113.922C22.3078 115.406 20.503 116.166 18.4037 116.175C16.308 116.183 14.5126 115.416 13.0013 113.962C11.2202 115.65 9.11278 116.404 6.67084 116.117C4.82962 115.901 3.26704 115.089 2.01225 113.722C0.638297 112.226 -0.0347601 110.445 0.00218389 108.415C0.0391279 106.385 0.801943 104.645 2.21544 103.182C0.526945 101.401 -0.227545 99.2937 0.0596818 96.8515C0.276142 95.01 1.08761 93.4477 2.45428 92.1929C3.95103 90.8187 5.73215 90.1459 7.7612 90.1828C9.7913 90.2198 11.5316 90.9826 12.994 92.3963C14.7759 90.7076 16.8832 89.9534 19.3252 90.2403C21.1667 90.4568 22.729 91.268 23.9838 92.6349C25.3577 94.1317 26.0308 95.9128 25.9938 97.9418C25.9569 99.9722 25.1941 101.712 23.7785 103.177H23.7782ZM7.51066 93.9953C7.39515 94.0073 7.19924 94.0141 7.00828 94.0489C5.56564 94.3125 4.55722 95.1266 4.08241 96.5109C3.60396 97.9059 3.89926 99.1808 4.8983 100.269C5.38144 100.795 5.9049 101.284 6.40885 101.791C6.48507 101.868 6.56156 101.946 6.62687 102.031C7.17869 102.754 7.10766 103.704 6.44995 104.37C5.9624 104.863 5.46599 105.347 4.98078 105.842C4.07539 106.766 3.70023 107.877 3.93724 109.147C4.20183 110.565 5.04426 111.548 6.41249 112.002C7.79555 112.462 9.05893 112.168 10.135 111.179C10.6642 110.693 11.1567 110.167 11.6669 109.66C11.7436 109.584 11.8219 109.508 11.9078 109.443C12.6282 108.896 13.5762 108.967 14.2358 109.619C14.7288 110.106 15.2132 110.602 15.7081 111.088C16.608 111.971 17.689 112.355 18.9349 112.148C20.3815 111.909 21.3868 111.075 21.8616 109.691C22.34 108.296 22.0447 107.021 21.0454 105.933C20.5563 105.401 20.025 104.907 19.5175 104.391C19.4058 104.278 19.2979 104.155 19.2144 104.02C18.7726 103.308 18.8842 102.447 19.4935 101.832C20.0118 101.309 20.5469 100.801 21.0506 100.264C21.9009 99.3585 22.2357 98.272 22.0068 97.0544C21.7403 95.637 20.8987 94.6546 19.531 94.1993C18.1534 93.7409 16.8924 94.0318 15.8181 95.0139C15.2845 95.5017 14.7899 96.0322 14.2766 96.5421C14.1999 96.6184 14.1216 96.6943 14.0354 96.7594C13.3143 97.306 12.3675 97.2352 11.7072 96.5832C11.217 96.0991 10.7321 95.6097 10.2453 95.1221C9.51214 94.3877 8.62497 94.018 7.50988 93.9953H7.51066Z" fill="white"/>
    </g>
    <path d="M91.3468 101.046C91.9243 99.2074 91.7212 97.1929 90.8074 95.5231C89.4241 92.9611 86.6448 91.6429 83.9352 92.258C82.7296 90.8114 80.9909 89.9866 79.1761 90.0002C76.4031 89.9934 73.941 91.893 73.0844 94.7119C71.3013 95.0972 69.7657 96.287 68.8646 97.977C67.4686 100.532 67.7859 103.757 69.6515 105.954C69.074 107.793 69.2771 109.807 70.1908 111.477C71.5742 114.039 74.3535 115.357 77.0694 114.742C78.275 116.189 80.0137 117.013 81.8285 117C84.6015 117.007 87.0699 115.1 87.9202 112.288C89.7033 111.903 91.2389 110.713 92.14 109.023C93.5297 106.468 93.2124 103.243 91.3532 101.053L91.3468 101.046ZM81.8222 115.222C80.7117 115.222 79.633 114.81 78.7827 114.052C78.8207 114.032 78.8905 113.992 78.935 113.965L83.9797 110.862C84.2398 110.706 84.3985 110.416 84.3921 110.098V102.52L86.5242 103.831C86.5242 103.831 86.5623 103.865 86.5686 103.892V110.165C86.5686 112.957 84.4429 115.215 81.8222 115.222ZM71.6186 110.585C71.0602 109.564 70.8635 108.36 71.0538 107.198C71.0919 107.225 71.1554 107.265 71.2061 107.292L76.2508 110.395C76.5046 110.557 76.8219 110.557 77.0821 110.395L83.2436 106.61V109.233C83.2436 109.233 83.2309 109.287 83.2118 109.3L78.1101 112.437C75.8384 113.829 72.9384 113.005 71.6249 110.585H71.6186ZM70.2924 98.8491C70.8444 97.8215 71.7201 97.0374 72.7608 96.6318C72.7608 96.6791 72.7608 96.7602 72.7608 96.8143V103.02C72.7608 103.338 72.9194 103.628 73.1732 103.784L79.3347 107.57L77.2026 108.881C77.2026 108.881 77.1519 108.901 77.1328 108.888L72.031 105.751C69.7657 104.352 68.9852 101.262 70.2924 98.8423V98.8491ZM87.8124 103.196L81.6508 99.4102L83.7829 98.0987C83.7829 98.0987 83.8337 98.0784 83.8527 98.092L88.9546 101.229C91.2262 102.628 92.0004 105.717 90.6932 108.137C90.1412 109.158 89.2655 109.942 88.2248 110.355V103.96C88.2248 103.642 88.0725 103.351 87.8124 103.196ZM89.9381 99.7887C89.9 99.7617 89.8366 99.7211 89.7858 99.6941L84.7411 96.5912C84.4873 96.429 84.17 96.429 83.9099 96.5912L77.7484 100.377V97.754C77.7484 97.754 77.761 97.6999 77.7801 97.6863L82.8819 94.5497C85.1536 93.1571 88.0598 93.9818 89.367 96.4019C89.9191 97.4227 90.1221 98.6192 89.9318 99.782L89.9381 99.7887ZM76.5935 104.467L74.4614 103.155C74.4614 103.155 74.4233 103.121 74.417 103.094V96.8211C74.417 94.0292 76.5491 91.7645 79.1698 91.7645C80.2802 91.7645 81.3526 92.1769 82.2029 92.934C82.1648 92.9543 82.095 92.9949 82.0506 93.0219L77.0059 96.1248C76.7458 96.2803 76.5871 96.5709 76.5935 96.8887V104.46V104.467ZM77.7547 101.803L80.496 100.113L83.2372 101.803V105.176L80.496 106.866L77.7547 105.176V101.803Z" fill="white"/>
  </g>
  <path d="M270 194.452C270 204.516 133 204.516 133 194.452V171C133 184.138 270 184.138 270 171V194.452Z" fill="#D8DCE9"/>
  <path d="M201.5 182C239.332 182 270 177.299 270 171.5C270 165.701 239.332 161 201.5 161C163.668 161 133 165.701 133 171.5C133 177.299 163.668 182 201.5 182Z" fill="#E6EAF4"/>
  <path d="M250.777 167.72C250.777 174.915 152.813 174.915 152.813 167.72V151.659C152.813 161.048 250.777 160.889 250.777 151.5V167.72Z" fill="#D8DCE9"/>
  <path d="M201.798 159.005C228.848 159.005 250.777 155.852 250.777 151.963C250.777 148.075 228.848 144.922 201.798 144.922C174.747 144.922 152.818 148.075 152.818 151.963C152.818 155.852 174.747 159.005 201.798 159.005Z" fill="#E6EAF4"/>
  <g filter="url(#filter0_i_1007_3160)">
    <path d="M201.322 128.934C224.163 128.934 242.679 110.418 242.679 87.5775C242.679 64.7368 224.163 46.2207 201.322 46.2207C178.481 46.2207 159.965 64.7368 159.965 87.5775C159.965 110.418 178.481 128.934 201.322 128.934Z" fill="#FFE072"/>
  </g>
  <g filter="url(#filter1_i_1007_3160)">
    <path d="M201.322 120.544C219.529 120.544 234.289 105.785 234.289 87.5777C234.289 69.3709 219.529 54.6113 201.322 54.6113C183.116 54.6113 168.356 69.3709 168.356 87.5777C168.356 105.785 183.116 120.544 201.322 120.544Z" fill="#FFC83D"/>
  </g>
  <path d="M148.207 92.9076V97.384H143.629V101.877H141.377V97.384H136.852V92.9076H130V115.597H136.852V106.552H139.066V111.05H145.918V106.552H148.207V115.597H155V92.9076H148.207Z" fill="white"/>
  <path d="M265.796 99.6523C266.19 98.0587 266.511 96.4699 266.756 94.8955C272.06 92.6779 274.1 88.5211 272.876 82.4107C272.876 82.4107 268.849 84.2683 267.299 89.4523C267.438 86.6971 267.366 84.0235 267.068 81.4651C267.078 81.4651 267.087 81.4651 267.097 81.4603C267.14 81.5563 267.169 81.6475 267.212 81.7435C270.937 78.0811 271.297 73.9147 268.297 69.2395C268.297 69.2395 266.137 71.5195 265.897 75.3931C265.479 73.8523 264.98 72.3643 264.395 70.9483C266.876 66.7051 266.223 62.7211 262.427 59.0011C262.427 59.0011 260.881 61.6315 261.414 65.3563C260.684 64.2763 259.887 63.2635 259.033 62.3131C260.492 58.1611 259.249 54.7291 255.299 52.0123C255.299 52.0123 254.007 55.4155 255.899 59.3323C255.26 58.8187 254.593 58.3387 253.902 57.8923C253.806 53.5867 248.799 51.5323 243.86 51.7387C243.663 52.3963 247.662 59.3851 253.115 58.5979C254.348 59.3803 255.505 60.2731 256.58 61.2619C254.147 59.4475 251.363 59.3179 248.228 60.8827C253.494 66.4699 259.057 63.9691 259.119 63.9403C260.751 65.9419 262.11 68.2363 263.209 70.7419C260.3 66.9835 256.796 66.1195 252.683 68.1739C257.526 73.3099 262.604 71.6107 263.444 71.2843C264.414 73.6075 265.153 76.1131 265.643 78.7723C263.099 75.4891 259.681 74.5051 255.385 75.8155C259.124 81.3595 263.881 81.7483 266.065 81.5899C266.387 84.3979 266.454 87.3403 266.243 90.3883C265.177 87.0091 262.676 84.9355 258.726 84.1915C259.628 91.0027 263.838 93.5371 265.811 94.3675C265.46 96.7387 264.932 99.1531 264.227 101.563C264.102 98.0683 262.287 95.3899 258.75 93.5371C257.679 100.617 261.327 104.294 262.907 105.528C262.023 107.884 260.963 110.203 259.734 112.454C260.19 109.032 258.879 106.003 255.803 103.377C253.196 110.179 255.841 114.763 257.243 116.558C255.308 119.424 253.067 122.102 250.518 124.488C253.633 120.94 254.199 116.659 252.193 111.643C244.148 118.708 246.663 126.868 246.879 127.526C244.676 129.158 242.281 130.579 239.703 131.745C239.18 131.904 238.647 132.1 238.11 132.331C242.871 129.264 244.772 124.574 243.798 118.252C234.203 123.326 233.843 131.678 233.919 133.828C233.891 133.838 233.857 133.848 233.828 133.857L234.044 134.716C234.015 134.74 233.982 134.76 233.953 134.784C239.857 139.084 245.545 138.48 251.012 132.979C251.012 132.979 247.878 130.862 243.212 131.121C244.806 130.224 246.318 129.225 247.753 128.14C254.535 130.555 259.811 128.366 263.583 121.56C263.583 121.56 258.831 120.028 253.523 122.894C255.126 121.152 256.595 119.294 257.919 117.35C257.963 117.393 257.991 117.422 257.991 117.422C258.131 117.168 258.251 116.923 258.375 116.673C260.646 113.227 262.484 109.526 263.891 105.753C263.881 105.849 263.862 105.931 263.852 106.032C269.444 104.673 272.084 100.872 271.767 94.6315C271.767 94.6315 268.143 95.6635 265.777 99.6619L265.796 99.6523Z" fill="url(#paint2_linear_1007_3160)"/>
  <path d="M257 117.085C263.523 117.301 267.512 113.936 268.962 107C268.962 107 260.566 107.014 257 117.085Z" fill="#FED879"/>
  <path d="M135.425 99.9277C135.031 98.3341 134.709 96.7453 134.465 95.1709C129.161 92.9533 127.121 88.7965 128.345 82.6861C128.345 82.6861 132.372 84.5437 133.922 89.7277C133.783 86.9725 133.855 84.2989 134.153 81.7405C134.143 81.7405 134.133 81.7405 134.124 81.7357C134.081 81.8317 134.052 81.9229 134.009 82.0189C130.284 78.3565 129.924 74.1901 132.924 69.5149C132.924 69.5149 135.084 71.7949 135.324 75.6685C135.741 74.1277 136.241 72.6397 136.826 71.2237C134.345 66.9805 134.997 62.9965 138.794 59.2765C138.794 59.2765 140.34 61.9069 139.807 65.6317C140.537 64.5517 141.333 63.5389 142.188 62.5885C140.729 58.4365 141.972 55.0045 145.922 52.2877C145.922 52.2877 147.213 55.6909 145.322 59.6077C145.961 59.0941 146.628 58.6141 147.319 58.1677C147.415 53.8621 152.421 51.8077 157.361 52.0141C157.557 52.6717 153.559 59.6605 148.106 58.8733C146.873 59.6557 145.716 60.5485 144.641 61.5373C147.074 59.7229 149.858 59.5933 152.993 61.1581C147.727 66.7453 142.164 64.2445 142.101 64.2157C140.469 66.2173 139.111 68.5117 138.012 71.0173C140.921 67.2589 144.425 66.3949 148.538 68.4493C143.695 73.5853 138.617 71.8861 137.777 71.5597C136.807 73.8829 136.068 76.3885 135.578 79.0477C138.122 75.7645 141.54 74.7805 145.836 76.0909C142.097 81.6349 137.34 82.0237 135.156 81.8653C134.834 84.6733 134.767 87.6157 134.978 90.6637C136.044 87.2845 138.545 85.2109 142.495 84.4669C141.593 91.2781 137.383 93.8125 135.41 94.6429C135.761 97.0141 136.289 99.4285 136.994 101.838C137.119 98.3437 138.933 95.6653 142.471 93.8125C143.541 100.893 139.893 104.569 138.314 105.803C139.197 108.16 140.258 110.478 141.487 112.729C141.031 109.307 142.341 106.278 145.418 103.653C148.025 110.454 145.38 115.038 143.978 116.833C145.913 119.699 148.154 122.377 150.703 124.763C147.588 121.216 147.021 116.934 149.028 111.918C157.073 118.984 154.557 127.144 154.341 127.801C156.545 129.433 158.94 130.854 161.517 132.021C162.041 132.179 162.573 132.376 163.111 132.606C158.349 129.539 156.449 124.849 157.423 118.528C167.018 123.601 167.378 131.953 167.301 134.104C167.33 134.113 167.364 134.123 167.393 134.133L167.177 134.992C167.205 135.016 167.239 135.035 167.268 135.059C161.364 139.36 155.676 138.755 150.209 133.254C150.209 133.254 153.343 131.137 158.009 131.397C156.415 130.499 154.903 129.501 153.468 128.416C146.685 130.83 141.41 128.641 137.637 121.835C137.637 121.835 142.389 120.304 147.698 123.169C146.095 121.427 144.626 119.569 143.301 117.625C143.258 117.669 143.229 117.697 143.229 117.697C143.09 117.443 142.97 117.198 142.845 116.949C140.575 113.502 138.737 109.801 137.33 106.029C137.34 106.125 137.359 106.206 137.369 106.307C131.777 104.949 129.137 101.147 129.453 94.9069C129.453 94.9069 133.077 95.9389 135.444 99.9373L135.425 99.9277Z" fill="url(#paint3_linear_1007_3160)"/>
  <path d="M144.221 117.36C137.698 117.576 133.709 114.211 132.259 107.275C132.259 107.275 140.654 107.29 144.221 117.36Z" fill="#FED878"/>
  <g filter="url(#filter2_d_1007_3160)">
    <path d="M180.331 96V78.72H183.595V92.952H191.035V96H180.331ZM192.596 96V78.72H195.86V92.952H203.3V96H192.596ZM204.62 96V78.72H207.548L213.26 90.192L218.972 78.72H221.9V96H218.852V85.68L213.836 96H212.684L207.668 85.68V96H204.62Z" fill="white"/>
  </g>
  <defs>
    <filter id="filter0_i_1007_3160" x="158.511" y="44.7662" width="84.1679" height="84.1682" filterUnits="userSpaceOnUse" color-interpolation-filters="sRGB">
      <feFlood flood-opacity="0" result="BackgroundImageFix"/>
      <feBlend mode="normal" in="SourceGraphic" in2="BackgroundImageFix" result="shape"/>
      <feColorMatrix in="SourceAlpha" type="matrix" values="0 0 0 0 0 0 0 0 0 0 0 0 0 0 0 0 0 0 127 0" result="hardAlpha"/>
      <feOffset dx="-1.45455" dy="-1.45455"/>
      <feGaussianBlur stdDeviation="1.45455"/>
      <feComposite in2="hardAlpha" operator="arithmetic" k2="-1" k3="1"/>
      <feColorMatrix type="matrix" values="0 0 0 0 1 0 0 0 0 0.784928 0 0 0 0 0.240923 0 0 0 1 0"/>
      <feBlend mode="normal" in2="shape" result="effect1_innerShadow_1007_3160"/>
    </filter>
    <filter id="filter1_i_1007_3160" x="168.356" y="54.6113" width="66.6599" height="66.6601" filterUnits="userSpaceOnUse" color-interpolation-filters="sRGB">
      <feFlood flood-opacity="0" result="BackgroundImageFix"/>
      <feBlend mode="normal" in="SourceGraphic" in2="BackgroundImageFix" result="shape"/>
      <feColorMatrix in="SourceAlpha" type="matrix" values="0 0 0 0 0 0 0 0 0 0 0 0 0 0 0 0 0 0 127 0" result="hardAlpha"/>
      <feOffset dx="1.45455" dy="1.45455"/>
      <feGaussianBlur stdDeviation="0.363636"/>
      <feComposite in2="hardAlpha" operator="arithmetic" k2="-1" k3="1"/>
      <feColorMatrix type="matrix" values="0 0 0 0 1 0 0 0 0 0.741111 0 0 0 0 0.0862745 0 0 0 1 0"/>
      <feBlend mode="normal" in2="shape" result="effect1_innerShadow_1007_3160"/>
    </filter>
    <filter id="filter2_d_1007_3160" x="178.877" y="77.2654" width="44.4779" height="20.1891" filterUnits="userSpaceOnUse" color-interpolation-filters="sRGB">
      <feFlood flood-opacity="0" result="BackgroundImageFix"/>
      <feColorMatrix in="SourceAlpha" type="matrix" values="0 0 0 0 0 0 0 0 0 0 0 0 0 0 0 0 0 0 127 0" result="hardAlpha"/>
      <feOffset/>
      <feGaussianBlur stdDeviation="0.727273"/>
      <feComposite in2="hardAlpha" operator="out"/>
      <feColorMatrix type="matrix" values="0 0 0 0 1 0 0 0 0 0.619281 0 0 0 0 0.0862745 0 0 0 1 0"/>
      <feBlend mode="normal" in2="BackgroundImageFix" result="effect1_dropShadow_1007_3160"/>
      <feBlend mode="normal" in="SourceGraphic" in2="effect1_dropShadow_1007_3160" result="shape"/>
    </filter>
    <linearGradient id="paint0_linear_1007_3160" x1="399.995" y1="102.499" x2="361.14" y2="102.499" gradientUnits="userSpaceOnUse">
      <stop stop-color="white"/>
      <stop offset="1" stop-color="#E5E9F3"/>
    </linearGradient>
    <linearGradient id="paint1_linear_1007_3160" x1="38" y1="102.5" x2="0" y2="102.5" gradientUnits="userSpaceOnUse">
      <stop stop-color="#E5E9F3"/>
      <stop offset="1" stop-color="white"/>
    </linearGradient>
    <linearGradient id="paint2_linear_1007_3160" x1="253.524" y1="51.7246" x2="253.524" y2="137.612" gradientUnits="userSpaceOnUse">
      <stop stop-color="#EBE1C5"/>
      <stop offset="0.745" stop-color="#FFD670"/>
    </linearGradient>
    <linearGradient id="paint3_linear_1007_3160" x1="147.696" y1="52" x2="147.696" y2="137.888" gradientUnits="userSpaceOnUse">
      <stop stop-color="#EBE1C5"/>
      <stop offset="0.745" stop-color="#FFD670"/>
    </linearGradient>
    <clipPath id="clip0_1007_3160">
      <rect width="400" height="71" fill="white" transform="translate(0 67)"/>
    </clipPath>
    <clipPath id="clip1_1007_3160">
      <rect width="36" height="36" fill="white" transform="translate(125 85)"/>
    </clipPath>
    <clipPath id="clip2_1007_3160">
      <rect width="27" height="27" fill="white" transform="translate(237 90)"/>
    </clipPath>
    <clipPath id="clip3_1007_3160">
      <rect width="32" height="29.042" fill="white" transform="translate(0 88)"/>
    </clipPath>
  </defs>
</svg>
