<svg width="400" height="240" viewBox="0 0 400 240" fill="none" xmlns="http://www.w3.org/2000/svg">
  <rect width="400" height="240" rx="10" fill="white"/>
  <g clip-path="url(#clip0_1039_1675)">
    <rect width="275" height="159" transform="translate(63 39)" fill="white"/>
    <path d="M245 113H153V198H245V113Z" fill="#E6EAF4"/>
    <path d="M151 133H75C73.9 133 73 133.9 73 135V196C73 197.1 73.9 198 75 198H151C152.1 198 153 197.1 153 196V135C153 133.9 152.1 133 151 133Z" fill="#E6EAF4"/>
    <path d="M326 141H247C245.9 141 245 141.89 245 143V196C245 197.1 245.9 198 247 198H326C327.11 198 328 197.1 328 196V143C328 141.89 327.11 141 326 141Z" fill="#E6EAF4"/>
    <path d="M152.97 133L153 198H147L149.58 133H152.97Z" fill="#C1C4D6"/>
    <path d="M245 141V198H251L248 141H245Z" fill="#C1C4D6"/>
    <path d="M151 129H65C63.9 129 63 129.9 63 131V134C63 135.1 63.9 136 65 136H151C152.1 136 153 135.1 153 134V131C153 129.9 152.1 129 151 129Z" fill="#C1C4D6"/>
    <path d="M336 140H247C245.9 140 245 140.89 245 142V144C245 145.11 245.9 146 247 146H336C337.11 146 338 145.11 338 144V142C338 140.89 337.11 140 336 140Z" fill="#C1C4D6"/>
    <path d="M246 111H151C149.9 111 149 111.9 149 113V116C149 117.1 149.9 118 151 118H246C247.1 118 248 117.1 248 116V113C248 111.9 247.1 111 246 111Z" fill="#C1C4D6"/>
    <path d="M246 103H151C149.9 103 149 103.9 149 105V114C149 115.1 149.9 116 151 116H246C247.1 116 248 115.1 248 114V105C248 103.9 247.1 103 246 103Z" fill="#D4D6E2"/>
    <path d="M336 132H247C245.9 132 245 132.9 245 134V142C245 143.11 245.9 144 247 144H336C337.11 144 338 143.11 338 142V134C338 132.9 337.11 132 336 132Z" fill="#D4D6E2"/>
    <path d="M196.86 170V149.29L192.11 152.19V147.51L196.86 144.66H201.19V170H196.86Z" fill="#ADB2CA"/>
    <path d="M106.28 174.97V172.28L114.16 165.25C114.77 164.7 115.2 164.19 115.44 163.7C115.68 163.21 115.8 162.74 115.8 162.29C115.8 161.68 115.67 161.13 115.4 160.65C115.14 160.16 114.77 159.78 114.3 159.5C113.84 159.22 113.31 159.08 112.7 159.08C112.06 159.08 111.49 159.23 111 159.53C110.51 159.82 110.13 160.21 109.86 160.69C109.59 161.18 109.46 161.7 109.48 162.26H106.31C106.31 161.03 106.58 159.96 107.13 159.05C107.68 158.14 108.44 157.43 109.41 156.93C110.38 156.43 111.5 156.17 112.78 156.17C113.96 156.17 115.02 156.43 115.95 156.96C116.89 157.48 117.63 158.21 118.16 159.14C118.7 160.06 118.97 161.12 118.97 162.33C118.97 163.21 118.85 163.95 118.61 164.54C118.37 165.14 118.01 165.69 117.53 166.19C117.06 166.69 116.48 167.25 115.78 167.87L110.19 172.82L109.91 172.05H118.97V174.95H106.29L106.28 174.97Z" fill="#ADB2CA"/>
    <path d="M288.07 180.35C287.15 180.35 286.28 180.17 285.46 179.81C284.64 179.45 283.93 178.94 283.32 178.29C282.72 177.63 282.29 176.86 282.03 175.96L285.01 175.15C285.22 175.88 285.61 176.45 286.18 176.85C286.75 177.24 287.38 177.44 288.06 177.43C288.67 177.43 289.21 177.29 289.68 177.01C290.16 176.73 290.53 176.35 290.81 175.87C291.08 175.38 291.22 174.84 291.22 174.24C291.22 173.33 290.93 172.56 290.34 171.95C289.75 171.33 288.99 171.03 288.06 171.03C287.78 171.03 287.5 171.07 287.23 171.15C286.97 171.23 286.71 171.33 286.46 171.47L285.05 169.04L291.25 163.74L291.52 164.48H282.75V161.57H294.05V164.49L289.07 169.28L289.04 168.37C290.16 168.45 291.11 168.76 291.9 169.3C292.69 169.85 293.3 170.55 293.72 171.41C294.15 172.27 294.36 173.22 294.36 174.24C294.36 175.4 294.07 176.44 293.5 177.36C292.94 178.28 292.18 179.01 291.22 179.55C290.27 180.08 289.22 180.34 288.07 180.34V180.35Z" fill="#ADB2CA"/>
    <path d="M199.66 94.32C214.94 94.32 227.32 81.94 227.32 66.66C227.32 51.38 214.94 39 199.66 39C184.38 39 172 51.38 172 66.66C172 81.94 184.39 94.32 199.66 94.32Z" fill="url(#paint0_linear_1039_1675)"/>
    <path d="M199.66 87.93C211.4 87.93 220.92 78.41 220.92 66.67C220.92 54.93 211.4 45.41 199.66 45.41C187.92 45.41 178.4 54.93 178.4 66.67C178.4 78.41 187.92 87.93 199.66 87.93Z" fill="url(#paint1_linear_1039_1675)"/>
    <path d="M200.89 54.06L203.93 59.27L209.96 59.29C211.05 59.29 211.73 60.47 211.18 61.41L208.18 66.65L211.18 71.89C211.72 72.84 211.04 74.01 209.96 74.01L203.93 74.03L200.89 79.24C200.34 80.18 198.99 80.18 198.44 79.24L195.4 74.03L189.37 74.01C188.29 74.01 187.6 72.83 188.15 71.89L191.14 66.65L188.15 61.41C187.61 60.46 188.29 59.29 189.37 59.29L195.4 59.27L198.44 54.06C198.99 53.12 200.34 53.12 200.89 54.06Z" fill="#FFC423"/>
    <g opacity="0.75">
      <path d="M200.89 54.06L203.93 59.27L209.96 59.29C211.05 59.29 211.73 60.47 211.18 61.41L208.18 66.65L211.18 71.89C211.72 72.84 211.04 74.01 209.96 74.01L203.93 74.03L200.89 79.24C200.34 80.18 198.99 80.18 198.44 79.24L195.4 74.03L189.37 74.01C188.29 74.01 187.6 72.83 188.15 71.89L191.14 66.65L188.15 61.41C187.61 60.46 188.29 59.29 189.37 59.29L195.4 59.27L198.44 54.06C198.99 53.12 200.34 53.12 200.89 54.06Z" fill="url(#paint2_linear_1039_1675)"/>
    </g>
    <path d="M113.13 114.26C124.25 114.26 133.26 105.25 133.26 94.13C133.26 83.01 124.25 74 113.13 74C102.01 74 93 83.01 93 94.13C93 105.25 102.01 114.26 113.13 114.26Z" fill="url(#paint3_linear_1039_1675)"/>
    <path d="M113.13 109.61C121.68 109.61 128.61 102.68 128.61 94.13C128.61 85.58 121.68 78.65 113.13 78.65C104.58 78.65 97.6499 85.58 97.6499 94.13C97.6499 102.68 104.58 109.61 113.13 109.61Z" fill="url(#paint4_linear_1039_1675)"/>
    <path d="M114.21 85.28L116.67 89.91L121.83 90.82C122.79 90.99 123.17 92.16 122.49 92.86L118.84 96.63L119.57 101.82C119.7 102.78 118.71 103.51 117.84 103.08L113.13 100.78L108.42 103.08C107.55 103.51 106.55 102.78 106.69 101.82L107.42 96.63L103.77 92.86C103.09 92.16 103.47 90.99 104.43 90.82L109.59 89.91L112.05 85.28C112.51 84.42 113.74 84.42 114.2 85.28H114.21Z" fill="#BFCDE3"/>
    <g opacity="0.75">
      <path d="M114.21 85.28L116.67 89.91L121.83 90.82C122.79 90.99 123.17 92.16 122.49 92.86L118.84 96.63L119.57 101.82C119.7 102.78 118.71 103.51 117.84 103.08L113.13 100.78L108.42 103.08C107.55 103.51 106.55 102.78 106.69 101.82L107.42 96.63L103.77 92.86C103.09 92.16 103.47 90.99 104.43 90.82L109.59 89.91L112.05 85.28C112.51 84.42 113.74 84.42 114.2 85.28H114.21Z" fill="url(#paint5_linear_1039_1675)"/>
    </g>
    <path d="M293.13 125.26C304.25 125.26 313.26 116.25 313.26 105.13C313.26 94.01 304.25 85 293.13 85C282.01 85 273 94.01 273 105.13C273 116.25 282.01 125.26 293.13 125.26Z" fill="url(#paint6_linear_1039_1675)"/>
    <path d="M293.13 120.61C301.68 120.61 308.61 113.68 308.61 105.13C308.61 96.58 301.68 89.65 293.13 89.65C284.58 89.65 277.66 96.58 277.66 105.13C277.66 113.68 284.59 120.61 293.13 120.61Z" fill="url(#paint7_linear_1039_1675)"/>
    <path d="M294.54 95.41L297.74 100.89L303.22 104.09C304.02 104.56 304.02 105.72 303.22 106.19L297.74 109.39L294.54 114.87C294.07 115.67 292.91 115.67 292.44 114.87L289.24 109.39L283.76 106.19C282.96 105.72 282.96 104.56 283.76 104.09L289.24 100.89L292.44 95.41C292.91 94.61 294.07 94.61 294.54 95.41Z" fill="#DDA69A"/>
    <g opacity="0.75">
      <path d="M294.54 95.41L297.74 100.89L303.22 104.09C304.02 104.56 304.02 105.72 303.22 106.19L297.74 109.39L294.54 114.87C294.07 115.67 292.91 115.67 292.44 114.87L289.24 109.39L283.76 106.19C282.96 105.72 282.96 104.56 283.76 104.09L289.24 100.89L292.44 95.41C292.91 94.61 294.07 94.61 294.54 95.41Z" fill="url(#paint8_linear_1039_1675)"/>
    </g>
    <path d="M151 121H65C63.9 121 63 121.9 63 123V132C63 133.1 63.9 134 65 134H151C152.1 134 153 133.1 153 132V123C153 121.9 152.1 121 151 121Z" fill="#D4D6E2"/>
  </g>
  <defs>
    <linearGradient id="paint0_linear_1039_1675" x1="199.66" y1="39" x2="199.66" y2="94.32" gradientUnits="userSpaceOnUse">
      <stop stop-color="#FFC72E"/>
      <stop offset="1" stop-color="#E3A300"/>
    </linearGradient>
    <linearGradient id="paint1_linear_1039_1675" x1="189.03" y1="48.24" x2="210.3" y2="85.08" gradientUnits="userSpaceOnUse">
      <stop stop-color="#FFE9AD"/>
      <stop offset="1" stop-color="#FFE072"/>
    </linearGradient>
    <linearGradient id="paint2_linear_1039_1675" x1="199.666" y1="79.945" x2="199.666" y2="53.355" gradientUnits="userSpaceOnUse">
      <stop stop-color="#FFC868"/>
      <stop offset="1" stop-color="#EAAC0B"/>
    </linearGradient>
    <linearGradient id="paint3_linear_1039_1675" x1="113.13" y1="74" x2="113.13" y2="114.26" gradientUnits="userSpaceOnUse">
      <stop stop-color="#BFCDE3"/>
      <stop offset="1" stop-color="#A5B1C4"/>
    </linearGradient>
    <linearGradient id="paint4_linear_1039_1675" x1="105.39" y1="80.73" x2="120.87" y2="107.54" gradientUnits="userSpaceOnUse">
      <stop stop-color="white"/>
      <stop offset="0.08" stop-color="#F4F8FD"/>
      <stop offset="0.23" stop-color="#E8F0FC"/>
      <stop offset="0.43" stop-color="#E1ECFC"/>
      <stop offset="1" stop-color="#E0EBFC"/>
    </linearGradient>
    <linearGradient id="paint5_linear_1039_1675" x1="113.13" y1="84.635" x2="113.13" y2="103.206" gradientUnits="userSpaceOnUse">
      <stop offset="0.01" stop-color="#95A4BA"/>
      <stop offset="0.5" stop-color="#A9BAD3"/>
      <stop offset="1" stop-color="#95A4BA"/>
    </linearGradient>
    <linearGradient id="paint6_linear_1039_1675" x1="293.13" y1="85" x2="293.13" y2="125.26" gradientUnits="userSpaceOnUse">
      <stop stop-color="#DDA69A"/>
      <stop offset="1" stop-color="#A37B72"/>
    </linearGradient>
    <linearGradient id="paint7_linear_1039_1675" x1="285.39" y1="91.73" x2="300.87" y2="118.54" gradientUnits="userSpaceOnUse">
      <stop stop-color="#FFE4D6"/>
      <stop offset="1" stop-color="#FFD9C5"/>
    </linearGradient>
    <linearGradient id="paint8_linear_1039_1675" x1="303.82" y1="105.14" x2="283.16" y2="105.14" gradientUnits="userSpaceOnUse">
      <stop stop-color="#AF837B"/>
      <stop offset="0.53" stop-color="#C9968D"/>
      <stop offset="1" stop-color="#B88981"/>
    </linearGradient>
    <clipPath id="clip0_1039_1675">
      <rect width="275" height="159" fill="white" transform="translate(63 39)"/>
    </clipPath>
  </defs>
</svg>
