<svg xmlns="http://www.w3.org/2000/svg" width="20" height="20" viewBox="0 0 20 20" fill="none">
  <path d="M10.3999 8.18188V12.0546H15.7817C15.5454 13.3001 14.8362 14.3546 13.7726 15.0637L17.018 17.5819C18.9089 15.8365 19.9998 13.2729 19.9998 10.2274C19.9998 9.51836 19.9362 8.83648 19.818 8.18199L10.3999 8.18188Z" fill="#4285F4"/>
  <path d="M4.79557 11.9033L4.0636 12.4636L1.47266 14.4818C3.1181 17.7454 6.49058 20 10.3996 20C13.0996 20 15.3632 19.109 17.0177 17.5818L13.7723 15.0636C12.8814 15.6636 11.745 16.0273 10.3996 16.0273C7.79965 16.0273 5.59063 14.2728 4.79966 11.9091L4.79557 11.9033Z" fill="#34A853"/>
  <path d="M1.47255 5.51807C0.79077 6.86346 0.399902 8.38166 0.399902 9.99981C0.399902 11.618 0.79077 13.1362 1.47255 14.4816C1.47255 14.4906 4.79987 11.8998 4.79987 11.8998C4.59987 11.2998 4.48166 10.6634 4.48166 9.99971C4.48166 9.33599 4.59987 8.69967 4.79987 8.09967L1.47255 5.51807Z" fill="#FBBC05"/>
  <path d="M10.3998 3.98181C11.8726 3.98181 13.1816 4.49089 14.2271 5.47272L17.0907 2.60912C15.3543 0.990969 13.0999 0 10.3998 0C6.49078 0 3.1181 2.24545 1.47266 5.51818L4.79988 8.1C5.59074 5.73634 7.79985 3.98181 10.3998 3.98181Z" fill="#EA4335"/>
</svg>