<?xml version="1.0" standalone="no"?>
<!DOCTYPE svg PUBLIC "-//W3C//DTD SVG 20010904//EN"
 "http://www.w3.org/TR/2001/REC-SVG-20010904/DTD/svg10.dtd">
<svg version="1.0" xmlns="http://www.w3.org/2000/svg"
 width="700.000000pt" height="700.000000pt" viewBox="0 0 700.000000 700.000000"
 preserveAspectRatio="xMidYMid meet">
<metadata>
Created by potrace 1.14, written by Peter Selinger 2001-2017
</metadata>
<g transform="translate(0.000000,700.000000) scale(0.100000,-0.100000)"
fill="#000000" stroke="none">
<path d="M3615 5381 l0 -918 30 -44 c17 -24 107 -154 200 -289 94 -135 202
-290 240 -345 38 -55 88 -127 111 -160 23 -33 72 -103 108 -155 36 -52 139
-201 229 -330 l164 -235 637 0 c350 0 636 1 636 3 0 3 -32 50 -71 106 -88 126
-246 354 -323 466 -33 47 -147 211 -254 365 -107 154 -214 307 -237 340 -23
33 -113 164 -201 290 -88 127 -187 268 -219 315 -32 47 -75 108 -94 135 -19
28 -85 122 -146 210 -60 88 -118 171 -128 185 -9 14 -34 50 -55 80 -20 30 -39
57 -43 60 -3 3 -36 50 -74 105 -92 135 -496 718 -504 727 -3 4 -6 -406 -6
-911z"/>
<path d="M3185 5958 c-237 -342 -272 -392 -443 -638 -134 -192 -412 -592 -594
-854 -80 -116 -167 -240 -192 -276 -86 -125 -316 -455 -326 -470 -5 -8 -36
-52 -67 -97 -115 -163 -264 -378 -388 -558 -37 -55 -77 -111 -87 -124 -10 -13
-18 -27 -18 -30 0 -4 286 -6 636 -6 596 0 636 1 649 18 65 89 40 53 610 877
230 333 427 615 438 627 20 22 20 35 21 934 1 501 -1 915 -4 919 -3 5 -109
-140 -235 -322z"/>
<path d="M3357 4028 c-84 -123 -179 -259 -209 -303 -31 -44 -105 -152 -166
-240 -61 -88 -115 -165 -120 -171 -5 -5 -14 -20 -21 -31 -6 -12 -17 -28 -23
-35 -7 -8 -17 -21 -23 -31 -5 -9 -54 -80 -107 -157 -54 -77 -98 -144 -98 -148
0 -5 420 -8 933 -8 617 1 931 4 928 11 -3 11 -78 121 -168 250 -31 44 -76 109
-101 145 -107 154 -323 464 -402 577 -47 67 -123 176 -168 242 -46 67 -88 121
-92 121 -5 0 -78 -100 -163 -222z"/>
<path d="M1050 1873 l0 -837 110 160 c61 87 147 211 191 274 161 232 379 546
569 821 107 156 216 313 242 351 l48 68 -580 0 -580 0 0 -837z"/>
<path d="M2419 2673 c-13 -21 -26 -40 -29 -43 -6 -5 -250 -357 -305 -440 -16
-25 -33 -49 -38 -55 -8 -9 -76 -107 -212 -305 -28 -41 -72 -104 -97 -140 -298
-428 -549 -794 -551 -803 -1 -9 571 -12 2341 -12 1288 0 2342 1 2342 3 0 3 -2
7 -232 337 -81 116 -279 401 -441 635 -162 234 -317 457 -344 495 -27 39 -96
136 -152 218 l-102 147 -1079 0 -1078 0 -23 -37z"/>
<path d="M4840 2704 c0 -4 113 -168 138 -199 4 -5 43 -62 86 -125 43 -63 92
-135 110 -160 42 -59 106 -151 191 -275 38 -55 72 -101 77 -103 4 -2 8 -8 8
-13 0 -6 17 -33 38 -62 21 -29 74 -104 118 -167 43 -63 147 -213 231 -334
l153 -218 0 831 0 831 -575 0 c-316 0 -575 -3 -575 -6z"/>
</g>
</svg>
