<svg width="64" height="64" viewBox="0 0 64 64" fill="none" xmlns="http://www.w3.org/2000/svg">
  <circle cx="32" cy="32" r="27" fill="#5865F2"/>
  <path d="M26.7205 21.9999C25.7043 21.9999 22.6405 23.1991 22.0909 23.4388C21.5414 23.6785 20.9311 24.4268 20.2386 25.6617C19.546 26.8967 18.9894 28.3398 18.0861 30.4633C17.1828 32.5868 16.9721 36.6814 17.0022 37.9309C17.0323 39.1803 17.1807 40.1556 18.5073 40.8948C19.8339 41.6339 21.0068 42.4062 22.2413 42.8711C23.4758 43.336 24.3187 43.6699 24.8908 43.205C25.4629 42.7401 25.8396 41.9266 25.8396 41.9266C25.8396 41.9266 26.3816 41.2003 25.3579 40.7644C24.3341 40.3285 23.8223 40.0231 23.8674 39.5727C23.9126 39.1223 23.9874 38.8757 24.2434 38.9338C24.4993 38.9919 25.1019 40.0378 27.4205 40.5172C29.739 40.9967 31.9995 40.9243 31.9995 40.9243C31.9995 40.9243 34.26 40.9967 36.5785 40.5172C38.8971 40.0378 39.4997 38.9919 39.7556 38.9338C40.0116 38.8757 40.0864 39.1223 40.1316 39.5727C40.1767 40.0231 39.6649 40.3285 38.6412 40.7644C37.6174 41.2003 38.1594 41.9266 38.1594 41.9266C38.1594 41.9266 38.5361 42.7401 39.1082 43.205C39.6804 43.6699 40.5232 43.336 41.7577 42.8711C42.9923 42.4062 44.1651 41.6339 45.4917 40.8948C46.8183 40.1556 46.9667 39.1803 46.9968 37.9309C47.0269 36.6814 46.8162 32.5868 45.9129 30.4633C45.0096 28.3398 44.453 26.8967 43.7605 25.6617C43.0679 24.4268 42.4576 23.6785 41.9081 23.4388C41.3586 23.1991 38.2947 21.9999 37.2785 21.9999C36.2623 21.9999 35.9617 22.6831 35.9617 22.6831L35.6078 23.4388C35.6078 23.4388 33.2273 23.0024 32.0151 23.0018C30.8029 23.0011 28.3912 23.4388 28.3912 23.4388L28.0373 22.6831C28.0373 22.6831 27.7368 21.9999 26.7205 21.9999V21.9999ZM26.831 31.0662C26.8434 31.0661 26.8558 31.0661 26.8682 31.0662C28.3499 31.0662 29.551 32.3173 29.551 33.8606C29.551 35.4039 28.3499 36.655 26.8682 36.655C25.3866 36.655 24.1855 35.4039 24.1855 33.8606C24.1853 32.3324 25.3639 31.0875 26.831 31.0662H26.831ZM37.1308 31.0662C37.1432 31.0661 37.1556 31.0661 37.168 31.0662C38.6351 31.0875 39.8137 32.3324 39.8135 33.8606C39.8135 35.4039 38.6124 36.655 37.1308 36.655C35.6491 36.655 34.448 35.4039 34.448 33.8606C34.448 32.3173 35.6491 31.0662 37.1308 31.0662H37.1308Z" fill="white"/>
</svg>
