<svg width="54" height="54" viewBox="0 0 54 54" fill="none" xmlns="http://www.w3.org/2000/svg">
  <circle cx="27" cy="27" r="27" fill="#29A0D3"/>
  <path d="M41.9646 14.3949L37.0841 37.7051C37.0841 37.7051 36.4022 39.3219 34.5246 38.546L23.2627 30.3666L19.1674 28.4908L12.2741 26.2929C12.2741 26.2929 11.2165 25.937 11.1142 25.161C11.0118 24.3851 12.3079 23.9651 12.3079 23.9651L39.7122 13.7809C39.7122 13.7809 41.9646 12.843 41.9646 14.3949Z" fill="white"/>
  <path d="M22.3981 37.4441C22.3981 37.4441 22.0694 37.414 21.6599 36.1832C21.2504 34.9524 19.168 28.4878 19.168 28.4878L35.7199 18.5335C35.7199 18.5335 36.6751 17.9835 36.6413 18.5335C36.6413 18.5335 36.8123 18.6305 36.3004 19.0825C35.7885 19.5344 23.298 30.1726 23.298 30.1726" fill="#CBDEEA"/>
  <path d="M27.581 33.5025L23.1264 37.3502C23.1264 37.3502 22.7783 37.6004 22.3975 37.4471L23.2554 30.2969" fill="#AEC9DC"/>
</svg>
