<svg width="22" height="22" viewBox="0 0 22 22" fill="none" xmlns="http://www.w3.org/2000/svg">
  <g id="Vector 45 (Stroke)">
    <path id="Vector 45 (Stroke)_2" fill-rule="evenodd" clip-rule="evenodd" d="M21.0607 21.0607C20.4749 21.6464 19.5251 21.6464 18.9393 21.0607L11 13.1213L3.06066 21.0607C2.47487 21.6464 1.52513 21.6464 0.939341 21.0607C0.353554 20.4749 0.353554 19.5251 0.939341 18.9393L8.87868 11L0.939342 3.06066C0.353555 2.47487 0.353556 1.52512 0.939342 0.939339C1.52513 0.353552 2.47488 0.353552 3.06066 0.939339L11 8.87868L18.9393 0.93934C19.5251 0.353554 20.4749 0.353554 21.0607 0.939341C21.6464 1.52513 21.6464 2.47487 21.0607 3.06066L13.1213 11L21.0607 18.9393C21.6464 19.5251 21.6464 20.4749 21.0607 21.0607Z" fill="#62667D"/>
  </g>
</svg>
