<svg width="20" height="20" viewBox="0 0 20 20" fill="none" xmlns="http://www.w3.org/2000/svg">
  <g id="moon">
    <path id="Vector" d="M17.5002 10.6583C17.3691 12.0768 16.8367 13.4287 15.9654 14.5557C15.094 15.6826 13.9197 16.5382 12.5799 17.0221C11.2401 17.5061 9.79015 17.5984 8.39975 17.2884C7.00934 16.9784 5.73599 16.2788 4.72868 15.2715C3.72138 14.2642 3.02178 12.9908 2.71175 11.6004C2.40172 10.21 2.49409 8.76007 2.97805 7.42025C3.462 6.08042 4.31752 4.90614 5.44451 4.03479C6.57149 3.16345 7.92333 2.63109 9.34183 2.5C8.51134 3.62356 8.1117 5.00787 8.21561 6.40118C8.31951 7.79448 8.92005 9.10422 9.908 10.0922C10.8959 11.0801 12.2057 11.6807 13.599 11.7846C14.9923 11.8885 16.3766 11.4888 17.5002 10.6583Z" fill="#C9CFDE" stroke="#C9CFDE" stroke-width="1.66667" stroke-linecap="round" stroke-linejoin="round"/>
  </g>
</svg>
