<svg width="20" height="20" viewBox="0 0 20 20" fill="none" xmlns="http://www.w3.org/2000/svg">
  <g clip-path="url(#clip0_723_1926)">
    <rect width="20" height="20" rx="10" fill="#F1F3F8"/>
    <path d="M7.05484 14V5.36H10.4808C11.0648 5.36 11.5428 5.478 11.9148 5.714C12.2908 5.946 12.5688 6.244 12.7488 6.608C12.9328 6.972 13.0248 7.348 13.0248 7.736C13.0248 8.212 12.9108 8.616 12.6828 8.948C12.4588 9.28 12.1528 9.504 11.7648 9.62V9.32C12.3088 9.444 12.7208 9.702 13.0008 10.094C13.2848 10.486 13.4268 10.932 13.4268 11.432C13.4268 11.944 13.3288 12.392 13.1328 12.776C12.9368 13.16 12.6448 13.46 12.2568 13.676C11.8728 13.892 11.3968 14 10.8288 14H7.05484ZM8.51884 12.638H10.6488C10.9008 12.638 11.1268 12.588 11.3268 12.488C11.5268 12.384 11.6828 12.24 11.7948 12.056C11.9108 11.868 11.9688 11.646 11.9688 11.39C11.9688 11.158 11.9188 10.95 11.8188 10.766C11.7188 10.582 11.5728 10.436 11.3808 10.328C11.1888 10.216 10.9588 10.16 10.6908 10.16H8.51884V12.638ZM8.51884 8.81H10.4628C10.6708 8.81 10.8568 8.77 11.0208 8.69C11.1848 8.61 11.3148 8.492 11.4108 8.336C11.5068 8.18 11.5548 7.988 11.5548 7.76C11.5548 7.46 11.4588 7.21 11.2668 7.01C11.0748 6.81 10.8068 6.71 10.4628 6.71H8.51884V8.81Z" fill="#4B88FF"/>
  </g>
  <defs>
    <clipPath id="clip0_723_1926">
      <rect width="20" height="20" rx="10" fill="white"/>
    </clipPath>
  </defs>
</svg>
